<svg version="1.1" baseProfile="full" width="1024" height="1024" xmlns="http://www.w3.org/2000/svg" >
<rect x="0" y="0" width="100%" height="100%" fill="#8080ff" />
<polygon points="508 508, 772 508, 768 512, 760 520, 520 520, 512 512" fill="#80dbda" />
<polygon points="772 508, 772 772, 768 768, 760 760, 760 520, 768 512" fill="#da80da" />
<polygon points="772 772, 508 772, 512 768, 520 760, 760 760, 768 768" fill="#8026da" />
<polygon points="508 772, 508 508, 512 512, 520 520, 520 760, 512 768" fill="#2580da" />
<rect x="512" y="512" width="256" height="256" stroke="white" stroke-width="1" fill="none" />
<polygon points="252 252, 266 252, 266 256, 266 264, 264 266, 256 266, 252 266" fill="#36caca" />
<polygon points="266 252, 502 252, 502 256, 502 264, 266 264, 266 256" fill="#80dbda" />
<polygon points="516 252, 516 266, 512 266, 504 266, 502 264, 502 256, 502 252" fill="#cacaca" />
<polygon points="516 266, 516 502, 512 502, 504 502, 503.90816391721285 423.4319728253716, 504.1318797519571 344.4759299709515, 504 266, 512 266" fill="#da80da" />
<polygon points="252 516, 252 502, 256 502, 264 502, 266 504, 266 512, 266 516" fill="#3636ca" />
<polygon points="252 502, 252 266, 256 266, 264 266, 263.9268131450886 344.68815218589486, 264.03131995469033 423.272213878687, 264 502, 256 502" fill="#8026da" />
<polygon points="516 516, 502 516, 502 512, 502 504, 504 502, 512 502, 516 502" fill="#ca36ca" />
<polygon points="502 516, 266 516, 266 512, 266 504, 384.06931382302145 504.0213659657976, 502 504, 502 512" fill="#2580da" />
<rect x="256" y="256" width="256" height="256" stroke="white" stroke-width="1" fill="none" />
</svg>
