<svg version="1.1" baseProfile="full" width="1024" height="1024" xmlns="http://www.w3.org/2000/svg" >
<rect x="0" y="0" width="100%" height="100%" fill="#8080ff" />
<polygon points="508 508, 772 508, 768 512, 760 520, 520 520, 512 512" fill="#80dbda" />
<polygon points="772 508, 772 772, 768 768, 760 760, 760 520, 768 512" fill="#da80da" />
<polygon points="772 772, 508 772, 512 768, 520 760, 760 760, 768 768" fill="#8026da" />
<polygon points="508 772, 508 508, 512 512, 520 520, 520 760, 512 768" fill="#2580da" />
<rect x="512" y="512" width="256" height="256" stroke="white" stroke-width="1" fill="none" />
<polygon points="252 252, 268 252, 268 256, 268.38554445236025 264.28860332989245, 263.4531223541045 267.9962941472702, 256 268, 252 268" fill="#36caca" />
<polygon points="268 252, 500 252, 500 256, 499.3930436242502 263.75921087069963, 445.6411688312777 260.8915589854978, 378.88929403830525 263.023907100296, 322.13741924533275 262.15625521509423, 268.38554445236025 264.28860332989245, 268 256" fill="#80dbda" />
<polygon points="516 252, 516 268, 512 268, 504.1542722473408 268.4288070438915, 499.3930436242502 263.75921087069963, 500 256, 500 252" fill="#cacaca" />
<polygon points="516 268, 516 500, 512 500, 504.1733903836327 500.479030423782, 496.16861084955974 436.46647457880937, 507.16383131548673 392.45391873383676, 498.1590517814138 323.4413628888641, 504.1542722473408 268.4288070438915, 512 268" fill="#da80da" />
<polygon points="252 516, 252 500, 256 500, 263.5206052068581 500.40054648661027, 267.4249671446524 503.85396267759336, 268 512, 268 516" fill="#3636ca" />
<polygon points="252 500, 252 268, 256 268, 263.4531223541045 267.9962941472702, 257.4666189246552 315.47714461513823, 268.48011549520595 363.9579950830062, 263.4936120657566 399.43884555087425, 264.50710863630735 445.91969601874223, 263.5206052068581 500.40054648661027, 256 500" fill="#8026da" />
<polygon points="516 516, 500 516, 500 512, 500.53914385752455 503.7299681058938, 504.1733903836327 500.479030423782, 512 500, 516 500" fill="#ca36ca" />
<polygon points="500 516, 268 516, 268 512, 267.4249671446524 503.85396267759336, 309.0478024872268 510.8291637632535, 358.67063782980125 504.80436484891356, 407.2934731723757 497.7795659345736, 451.9163085149501 511.7547670202337, 500.53914385752455 503.7299681058938, 500 512" fill="#2580da" />
<rect x="256" y="256" width="256" height="256" stroke="white" stroke-width="1" fill="none" />
</svg>
