<svg version="1.1" baseProfile="full" width="1024" height="1024" xmlns="http://www.w3.org/2000/svg" >
<rect x="0" y="0" width="100%" height="100%" fill="#8080ff" />
<polygon points="488 488, 792 488, 768 512, 800 480, 480 480, 512 512" fill="#80dbda" />
<polygon points="792 488, 792 792, 768 768, 800 800, 800 480, 768 512" fill="#da80da" />
<polygon points="792 792, 488 792, 512 768, 480 800, 800 800, 768 768" fill="#8026da" />
<polygon points="488 792, 488 488, 512 512, 480 480, 480 800, 512 768" fill="#2580da" />
<polygon points="232 232, 312 232, 312 256, 313.94766621877955 284.8699862529395, 289.4354526071418 312.979450782148, 256 312, 232 312" fill="#36caca" />
<polygon points="312 232, 456 232, 456 256, 459.31944846840315 286.960436758262, 313.94766621877955 284.8699862529395, 312 256" fill="#80dbda" />
<polygon points="536 232, 536 312, 512 312, 484.3823490749893 313.1946313272745, 459.31944846840315 286.960436758262, 456 256, 456 232" fill="#cacaca" />
<polygon points="536 312, 536 456, 512 456, 477.3317091614143 457.0554024975459, 484.3823490749893 313.1946313272745, 512 312" fill="#da80da" />
<polygon points="232 536, 232 456, 256 456, 288.8927422206422 460.7007832309342, 311.0020331853877 481.82914245020464, 312 512, 312 536" fill="#3636ca" />
<polygon points="232 456, 232 312, 256 312, 289.4354526071418 312.979450782148, 288.8927422206422 460.7007832309342, 256 456" fill="#8026da" />
<polygon points="536 536, 456 536, 456 512, 452.4763427174403 483.26174670172554, 477.3317091614143 457.0554024975459, 512 456, 536 456" fill="#ca36ca" />
<polygon points="456 536, 312 536, 312 512, 311.0020331853877 481.82914245020464, 452.4763427174403 483.26174670172554, 456 512" fill="#2580da" />
</svg>
