<svg xmlns="http://www.w3.org/2000/svg" width="972" height="195" viewBox="0 0 972 195">
  <defs>
    <style>
      .cls-1 {
        fill: #ca36ca;
        fill-rule: evenodd;
        mix-blend-mode: screen;
      }
    </style>
  </defs>
  <path class="cls-1" d="M5,6H189V99H5V6ZM198,6H383V99H198V6ZM393,6H578V99H393V6ZM587,6H772V99H587V6ZM782,6h93V99H782V6ZM884,6h93V99H884V6ZM517,108h93v93H517V108Zm-103,0h93v93H414V108Zm-102,0h93v93H312V108Zm-103,0h94v93H209V108Zm-102,0h93v93H107V108ZM5,108H98v93H5V108Z" transform="translate(-5 -6)"/>
</svg>
