<svg version="1.1" baseProfile="full" width="1440" height="840" xmlns="http://www.w3.org/2000/svg" >
<rect x="0" y="0" width="100%" height="100%" fill="#141411" />
<polyline points="128.0 128, 128.0 712" stroke="#272822" stroke-width="1" fill="none" />
<circle cx="128.0" cy="712" r="1.5" fill="#383830" />
<text x="128.0" y="720" fill="#383830" font-family="Ubuntu Mono" font-size="12" text-anchor="middle" alignment-baseline="central" >0</text>
<polyline points="168.83 128, 168.83 712" stroke="#272822" stroke-width="1" fill="none" />
<circle cx="168.83" cy="712" r="1.5" fill="#383830" />
<text x="168.83" y="720" fill="#383830" font-family="Ubuntu Mono" font-size="12" text-anchor="middle" alignment-baseline="central" >6</text>
<polyline points="209.66 128, 209.66 712" stroke="#272822" stroke-width="1" fill="none" />
<circle cx="209.66" cy="712" r="1.5" fill="#383830" />
<text x="209.66" y="720" fill="#383830" font-family="Ubuntu Mono" font-size="12" text-anchor="middle" alignment-baseline="central" >12</text>
<polyline points="250.48 128, 250.48 712" stroke="#272822" stroke-width="1" fill="none" />
<circle cx="250.48" cy="712" r="1.5" fill="#383830" />
<text x="250.48" y="720" fill="#383830" font-family="Ubuntu Mono" font-size="12" text-anchor="middle" alignment-baseline="central" >18</text>
<polyline points="291.31 128, 291.31 712" stroke="#272822" stroke-width="1" fill="none" />
<circle cx="291.31" cy="712" r="1.5" fill="#383830" />
<text x="291.31" y="720" fill="#383830" font-family="Ubuntu Mono" font-size="12" text-anchor="middle" alignment-baseline="central" >24</text>
<polyline points="332.14 128, 332.14 712" stroke="#272822" stroke-width="1" fill="none" />
<circle cx="332.14" cy="712" r="1.5" fill="#383830" />
<text x="332.14" y="720" fill="#383830" font-family="Ubuntu Mono" font-size="12" text-anchor="middle" alignment-baseline="central" >30</text>
<polyline points="372.97 128, 372.97 712" stroke="#272822" stroke-width="1" fill="none" />
<circle cx="372.97" cy="712" r="1.5" fill="#383830" />
<text x="372.97" y="720" fill="#383830" font-family="Ubuntu Mono" font-size="12" text-anchor="middle" alignment-baseline="central" >36</text>
<polyline points="413.79 128, 413.79 712" stroke="#272822" stroke-width="1" fill="none" />
<circle cx="413.79" cy="712" r="1.5" fill="#383830" />
<text x="413.79" y="720" fill="#383830" font-family="Ubuntu Mono" font-size="12" text-anchor="middle" alignment-baseline="central" >42</text>
<polyline points="454.62 128, 454.62 712" stroke="#272822" stroke-width="1" fill="none" />
<circle cx="454.62" cy="712" r="1.5" fill="#383830" />
<text x="454.62" y="720" fill="#383830" font-family="Ubuntu Mono" font-size="12" text-anchor="middle" alignment-baseline="central" >48</text>
<polyline points="495.45 128, 495.45 712" stroke="#272822" stroke-width="1" fill="none" />
<circle cx="495.45" cy="712" r="1.5" fill="#383830" />
<text x="495.45" y="720" fill="#383830" font-family="Ubuntu Mono" font-size="12" text-anchor="middle" alignment-baseline="central" >54</text>
<polyline points="536.28 128, 536.28 712" stroke="#272822" stroke-width="1" fill="none" />
<circle cx="536.28" cy="712" r="1.5" fill="#383830" />
<text x="536.28" y="720" fill="#383830" font-family="Ubuntu Mono" font-size="12" text-anchor="middle" alignment-baseline="central" >60</text>
<polyline points="577.1 128, 577.1 712" stroke="#272822" stroke-width="1" fill="none" />
<circle cx="577.1" cy="712" r="1.5" fill="#383830" />
<text x="577.1" y="720" fill="#383830" font-family="Ubuntu Mono" font-size="12" text-anchor="middle" alignment-baseline="central" >66</text>
<polyline points="617.93 128, 617.93 712" stroke="#272822" stroke-width="1" fill="none" />
<circle cx="617.93" cy="712" r="1.5" fill="#383830" />
<text x="617.93" y="720" fill="#383830" font-family="Ubuntu Mono" font-size="12" text-anchor="middle" alignment-baseline="central" >72</text>
<polyline points="658.76 128, 658.76 712" stroke="#272822" stroke-width="1" fill="none" />
<circle cx="658.76" cy="712" r="1.5" fill="#383830" />
<text x="658.76" y="720" fill="#383830" font-family="Ubuntu Mono" font-size="12" text-anchor="middle" alignment-baseline="central" >78</text>
<polyline points="699.59 128, 699.59 712" stroke="#272822" stroke-width="1" fill="none" />
<circle cx="699.59" cy="712" r="1.5" fill="#383830" />
<text x="699.59" y="720" fill="#383830" font-family="Ubuntu Mono" font-size="12" text-anchor="middle" alignment-baseline="central" >84</text>
<polyline points="740.41 128, 740.41 712" stroke="#272822" stroke-width="1" fill="none" />
<circle cx="740.41" cy="712" r="1.5" fill="#383830" />
<text x="740.41" y="720" fill="#383830" font-family="Ubuntu Mono" font-size="12" text-anchor="middle" alignment-baseline="central" >90</text>
<polyline points="781.24 128, 781.24 712" stroke="#272822" stroke-width="1" fill="none" />
<circle cx="781.24" cy="712" r="1.5" fill="#383830" />
<text x="781.24" y="720" fill="#383830" font-family="Ubuntu Mono" font-size="12" text-anchor="middle" alignment-baseline="central" >96</text>
<polyline points="822.07 128, 822.07 712" stroke="#272822" stroke-width="1" fill="none" />
<circle cx="822.07" cy="712" r="1.5" fill="#383830" />
<text x="822.07" y="720" fill="#383830" font-family="Ubuntu Mono" font-size="12" text-anchor="middle" alignment-baseline="central" >102</text>
<polyline points="862.9 128, 862.9 712" stroke="#272822" stroke-width="1" fill="none" />
<circle cx="862.9" cy="712" r="1.5" fill="#383830" />
<text x="862.9" y="720" fill="#383830" font-family="Ubuntu Mono" font-size="12" text-anchor="middle" alignment-baseline="central" >108</text>
<polyline points="903.72 128, 903.72 712" stroke="#272822" stroke-width="1" fill="none" />
<circle cx="903.72" cy="712" r="1.5" fill="#383830" />
<text x="903.72" y="720" fill="#383830" font-family="Ubuntu Mono" font-size="12" text-anchor="middle" alignment-baseline="central" >114</text>
<polyline points="944.55 128, 944.55 712" stroke="#272822" stroke-width="1" fill="none" />
<circle cx="944.55" cy="712" r="1.5" fill="#383830" />
<text x="944.55" y="720" fill="#383830" font-family="Ubuntu Mono" font-size="12" text-anchor="middle" alignment-baseline="central" >120</text>
<polyline points="985.38 128, 985.38 712" stroke="#272822" stroke-width="1" fill="none" />
<circle cx="985.38" cy="712" r="1.5" fill="#383830" />
<text x="985.38" y="720" fill="#383830" font-family="Ubuntu Mono" font-size="12" text-anchor="middle" alignment-baseline="central" >126</text>
<polyline points="1026.21 128, 1026.21 712" stroke="#272822" stroke-width="1" fill="none" />
<circle cx="1026.21" cy="712" r="1.5" fill="#383830" />
<text x="1026.21" y="720" fill="#383830" font-family="Ubuntu Mono" font-size="12" text-anchor="middle" alignment-baseline="central" >132</text>
<polyline points="1067.03 128, 1067.03 712" stroke="#272822" stroke-width="1" fill="none" />
<circle cx="1067.03" cy="712" r="1.5" fill="#383830" />
<text x="1067.03" y="720" fill="#383830" font-family="Ubuntu Mono" font-size="12" text-anchor="middle" alignment-baseline="central" >138</text>
<polyline points="1107.86 128, 1107.86 712" stroke="#272822" stroke-width="1" fill="none" />
<circle cx="1107.86" cy="712" r="1.5" fill="#383830" />
<text x="1107.86" y="720" fill="#383830" font-family="Ubuntu Mono" font-size="12" text-anchor="middle" alignment-baseline="central" >144</text>
<polyline points="1148.69 128, 1148.69 712" stroke="#272822" stroke-width="1" fill="none" />
<circle cx="1148.69" cy="712" r="1.5" fill="#383830" />
<text x="1148.69" y="720" fill="#383830" font-family="Ubuntu Mono" font-size="12" text-anchor="middle" alignment-baseline="central" >150</text>
<polyline points="1189.52 128, 1189.52 712" stroke="#272822" stroke-width="1" fill="none" />
<circle cx="1189.52" cy="712" r="1.5" fill="#383830" />
<text x="1189.52" y="720" fill="#383830" font-family="Ubuntu Mono" font-size="12" text-anchor="middle" alignment-baseline="central" >156</text>
<polyline points="1230.34 128, 1230.34 712" stroke="#272822" stroke-width="1" fill="none" />
<circle cx="1230.34" cy="712" r="1.5" fill="#383830" />
<text x="1230.34" y="720" fill="#383830" font-family="Ubuntu Mono" font-size="12" text-anchor="middle" alignment-baseline="central" >162</text>
<polyline points="1271.17 128, 1271.17 712" stroke="#272822" stroke-width="1" fill="none" />
<circle cx="1271.17" cy="712" r="1.5" fill="#383830" />
<text x="1271.17" y="720" fill="#383830" font-family="Ubuntu Mono" font-size="12" text-anchor="middle" alignment-baseline="central" >168</text>
<polyline points="1312.0 128, 1312.0 712" stroke="#272822" stroke-width="1" fill="none" />
<circle cx="1312.0" cy="712" r="1.5" fill="#383830" />
<text x="1312.0" y="720" fill="#383830" font-family="Ubuntu Mono" font-size="12" text-anchor="middle" alignment-baseline="central" >174</text>
<polyline points="128 712.0, 1312 712.0" stroke="#272822" stroke-width="1" fill="none" />
<circle cx="128" cy="712.0" r="1.5" fill="#383830" />
<text x="120" y="712.0" fill="#383830" font-family="Ubuntu Mono" font-size="12" text-anchor="end" alignment-baseline="central" >0</text>
<polyline points="128 682.8, 1312 682.8" stroke="#272822" stroke-width="1" fill="none" />
<circle cx="128" cy="682.8" r="1.5" fill="#383830" />
<text x="120" y="682.8" fill="#383830" font-family="Ubuntu Mono" font-size="12" text-anchor="end" alignment-baseline="central" >1000</text>
<polyline points="128 653.6, 1312 653.6" stroke="#272822" stroke-width="1" fill="none" />
<circle cx="128" cy="653.6" r="1.5" fill="#383830" />
<text x="120" y="653.6" fill="#383830" font-family="Ubuntu Mono" font-size="12" text-anchor="end" alignment-baseline="central" >2000</text>
<polyline points="128 624.4, 1312 624.4" stroke="#272822" stroke-width="1" fill="none" />
<circle cx="128" cy="624.4" r="1.5" fill="#383830" />
<text x="120" y="624.4" fill="#383830" font-family="Ubuntu Mono" font-size="12" text-anchor="end" alignment-baseline="central" >3000</text>
<polyline points="128 595.2, 1312 595.2" stroke="#272822" stroke-width="1" fill="none" />
<circle cx="128" cy="595.2" r="1.5" fill="#383830" />
<text x="120" y="595.2" fill="#383830" font-family="Ubuntu Mono" font-size="12" text-anchor="end" alignment-baseline="central" >4000</text>
<polyline points="128 566.0, 1312 566.0" stroke="#272822" stroke-width="1" fill="none" />
<circle cx="128" cy="566.0" r="1.5" fill="#383830" />
<text x="120" y="566.0" fill="#383830" font-family="Ubuntu Mono" font-size="12" text-anchor="end" alignment-baseline="central" >5000</text>
<polyline points="128 536.8, 1312 536.8" stroke="#272822" stroke-width="1" fill="none" />
<circle cx="128" cy="536.8" r="1.5" fill="#383830" />
<text x="120" y="536.8" fill="#383830" font-family="Ubuntu Mono" font-size="12" text-anchor="end" alignment-baseline="central" >6000</text>
<polyline points="128 507.6, 1312 507.6" stroke="#272822" stroke-width="1" fill="none" />
<circle cx="128" cy="507.6" r="1.5" fill="#383830" />
<text x="120" y="507.6" fill="#383830" font-family="Ubuntu Mono" font-size="12" text-anchor="end" alignment-baseline="central" >7000</text>
<polyline points="128 478.4, 1312 478.4" stroke="#272822" stroke-width="1" fill="none" />
<circle cx="128" cy="478.4" r="1.5" fill="#383830" />
<text x="120" y="478.4" fill="#383830" font-family="Ubuntu Mono" font-size="12" text-anchor="end" alignment-baseline="central" >8000</text>
<polyline points="128 449.2, 1312 449.2" stroke="#272822" stroke-width="1" fill="none" />
<circle cx="128" cy="449.2" r="1.5" fill="#383830" />
<text x="120" y="449.2" fill="#383830" font-family="Ubuntu Mono" font-size="12" text-anchor="end" alignment-baseline="central" >9000</text>
<polyline points="128 420.0, 1312 420.0" stroke="#272822" stroke-width="1" fill="none" />
<circle cx="128" cy="420.0" r="1.5" fill="#383830" />
<text x="120" y="420.0" fill="#383830" font-family="Ubuntu Mono" font-size="12" text-anchor="end" alignment-baseline="central" >10000</text>
<polyline points="128 390.8, 1312 390.8" stroke="#272822" stroke-width="1" fill="none" />
<circle cx="128" cy="390.8" r="1.5" fill="#383830" />
<text x="120" y="390.8" fill="#383830" font-family="Ubuntu Mono" font-size="12" text-anchor="end" alignment-baseline="central" >11000</text>
<polyline points="128 361.6, 1312 361.6" stroke="#272822" stroke-width="1" fill="none" />
<circle cx="128" cy="361.6" r="1.5" fill="#383830" />
<text x="120" y="361.6" fill="#383830" font-family="Ubuntu Mono" font-size="12" text-anchor="end" alignment-baseline="central" >12000</text>
<polyline points="128 332.4, 1312 332.4" stroke="#272822" stroke-width="1" fill="none" />
<circle cx="128" cy="332.4" r="1.5" fill="#383830" />
<text x="120" y="332.4" fill="#383830" font-family="Ubuntu Mono" font-size="12" text-anchor="end" alignment-baseline="central" >13000</text>
<polyline points="128 303.2, 1312 303.2" stroke="#272822" stroke-width="1" fill="none" />
<circle cx="128" cy="303.2" r="1.5" fill="#383830" />
<text x="120" y="303.2" fill="#383830" font-family="Ubuntu Mono" font-size="12" text-anchor="end" alignment-baseline="central" >14000</text>
<polyline points="128 274.0, 1312 274.0" stroke="#272822" stroke-width="1" fill="none" />
<circle cx="128" cy="274.0" r="1.5" fill="#383830" />
<text x="120" y="274.0" fill="#383830" font-family="Ubuntu Mono" font-size="12" text-anchor="end" alignment-baseline="central" >15000</text>
<polyline points="128 244.8, 1312 244.8" stroke="#272822" stroke-width="1" fill="none" />
<circle cx="128" cy="244.8" r="1.5" fill="#383830" />
<text x="120" y="244.8" fill="#383830" font-family="Ubuntu Mono" font-size="12" text-anchor="end" alignment-baseline="central" >16000</text>
<polyline points="128 215.6, 1312 215.6" stroke="#272822" stroke-width="1" fill="none" />
<circle cx="128" cy="215.6" r="1.5" fill="#383830" />
<text x="120" y="215.6" fill="#383830" font-family="Ubuntu Mono" font-size="12" text-anchor="end" alignment-baseline="central" >17000</text>
<polyline points="128 186.4, 1312 186.4" stroke="#272822" stroke-width="1" fill="none" />
<circle cx="128" cy="186.4" r="1.5" fill="#383830" />
<text x="120" y="186.4" fill="#383830" font-family="Ubuntu Mono" font-size="12" text-anchor="end" alignment-baseline="central" >18000</text>
<polyline points="128 157.2, 1312 157.2" stroke="#272822" stroke-width="1" fill="none" />
<circle cx="128" cy="157.2" r="1.5" fill="#383830" />
<text x="120" y="157.2" fill="#383830" font-family="Ubuntu Mono" font-size="12" text-anchor="end" alignment-baseline="central" >19000</text>
<polyline points="128 128.0, 1312 128.0" stroke="#272822" stroke-width="1" fill="none" />
<circle cx="128" cy="128.0" r="1.5" fill="#383830" />
<text x="120" y="128.0" fill="#383830" font-family="Ubuntu Mono" font-size="12" text-anchor="end" alignment-baseline="central" >20000</text>
<rect x="128" y="128" width="1184" height="584" stroke="#595959" stroke-width="1" fill="none" />
<text x="720.0" y="148" fill="#FF3D00" font-family="Ubuntu Mono" font-size="18" text-anchor="middle" alignment-baseline="central" >salesdata</text>
<circle cx="146" cy="146" r="1.5" fill="#3D5AFE" />
<text x="154" y="146" fill="#3D5AFE" font-family="Ubuntu Mono" font-size="12" text-anchor="start" alignment-baseline="central" >Release 0.4: 28 Apr 2015</text>
<circle cx="146" cy="164" r="1.5" fill="#2979FF" />
<text x="154" y="164" fill="#2979FF" font-family="Ubuntu Mono" font-size="12" text-anchor="start" alignment-baseline="central" >Release 0.5: 27 Oct 2015</text>
<circle cx="146" cy="182" r="1.5" fill="#00B0FF" />
<text x="154" y="182" fill="#00B0FF" font-family="Ubuntu Mono" font-size="12" text-anchor="start" alignment-baseline="central" >Release 0.6: 19 Feb 2016</text>
<circle cx="146" cy="200" r="1.5" fill="#00E5FF" />
<text x="154" y="200" fill="#00E5FF" font-family="Ubuntu Mono" font-size="12" text-anchor="start" alignment-baseline="central" >Release 0.7: 04 Jul 2016</text>
<circle cx="146" cy="218" r="1.5" fill="#FFC400" />
<text x="154" y="218" fill="#FFC400" font-family="Ubuntu Mono" font-size="12" text-anchor="start" alignment-baseline="central" >Release 0.8: 22 Dec 2016</text>
<polyline points="128 569, 134 545, 141 523, 147 486, 154 467, 160 452, 167 442, 173 449, 180 462, 186 478, 193 508, 199 519, 206 530, 212 535, 219 539, 225 543, 232 543, 238 547, 245 550, 251 554, 258 558, 264 561, 271 563, 277 567, 284 569, 290 570, 297 573, 303 570, 310 569, 316 568, 323 567, 329 567, 336 566, 342 569, 349 573, 355 572, 362 571, 368 562, 375 551, 381 529, 388 513, 394 503, 401 491, 407 479, 414 476, 420 476, 427 489, 433 502, 440 508, 446 517, 453 525, 459 532, 466 537, 472 541, 479 545, 485 546, 492 549, 498 550, 505 550, 511 553, 518 554, 524 554, 531 555, 537 542, 544 535, 550 537, 557 534, 563 535, 570 534, 576 532, 583 542, 589 549, 596 551, 602 557, 609 561, 615 563, 622 566, 628 569, 635 571, 641 571, 648 571, 654 571, 661 573, 667 574, 674 575, 680 575, 687 577, 693 581, 700 582, 706 580, 713 581, 720 581, 726 581, 733 581, 739 579, 746 580, 752 582, 759 584, 765 585, 772 585, 778 585, 785 588, 791 588, 798 586, 804 583, 811 583, 817 583, 824 583, 830 582, 837 581, 843 582, 850 585, 856 587, 863 589, 869 591, 876 591, 882 593, 889 593, 895 591, 902 592, 908 592, 915 592, 921 590, 928 590, 934 592, 941 593, 947 594, 954 597, 960 599, 967 600, 973 597, 980 596, 986 594, 993 597, 999 599, 1006 601, 1012 598, 1019 595, 1025 594, 1032 597, 1038 598, 1045 597, 1051 595, 1058 596, 1064 598, 1071 599, 1077 599, 1084 596, 1090 596, 1097 596, 1103 597, 1110 596, 1116 598, 1123 599, 1129 603, 1136 606, 1142 609, 1149 607, 1155 607, 1162 608, 1168 608, 1175 607, 1181 607, 1188 605, 1194 605, 1201 604, 1207 603, 1214 603, 1220 604, 1227 604, 1233 603, 1240 603, 1246 604, 1253 606, 1259 608, 1266 609, 1272 607, 1279 606, 1285 604, 1292 603, 1298 600, 1305 600, 1312 599" stroke="#3D5AFE" stroke-width="1" fill="none" />
<polygon points="128 569, 134 545, 141 523, 147 486, 154 467, 160 452, 167 442, 173 449, 180 462, 186 478, 193 508, 199 519, 206 530, 212 535, 219 539, 225 543, 232 543, 238 547, 245 550, 251 554, 258 558, 264 561, 271 563, 277 567, 284 569, 290 570, 297 573, 303 570, 310 569, 316 568, 323 567, 329 567, 336 566, 342 569, 349 573, 355 572, 362 571, 368 562, 375 551, 381 529, 388 513, 394 503, 401 491, 407 479, 414 476, 420 476, 427 489, 433 502, 440 508, 446 517, 453 525, 459 532, 466 537, 472 541, 479 545, 485 546, 492 549, 498 550, 505 550, 511 553, 518 554, 524 554, 531 555, 537 542, 544 535, 550 537, 557 534, 563 535, 570 534, 576 532, 583 542, 589 549, 596 551, 602 557, 609 561, 615 563, 622 566, 628 569, 635 571, 641 571, 648 571, 654 571, 661 573, 667 574, 674 575, 680 575, 687 577, 693 581, 700 582, 706 580, 713 581, 720 581, 726 581, 733 581, 739 579, 746 580, 752 582, 759 584, 765 585, 772 585, 778 585, 785 588, 791 588, 798 586, 804 583, 811 583, 817 583, 824 583, 830 582, 837 581, 843 582, 850 585, 856 587, 863 589, 869 591, 876 591, 882 593, 889 593, 895 591, 902 592, 908 592, 915 592, 921 590, 928 590, 934 592, 941 593, 947 594, 954 597, 960 599, 967 600, 973 597, 980 596, 986 594, 993 597, 999 599, 1006 601, 1012 598, 1019 595, 1025 594, 1032 597, 1038 598, 1045 597, 1051 595, 1058 596, 1064 598, 1071 599, 1077 599, 1084 596, 1090 596, 1097 596, 1103 597, 1110 596, 1116 598, 1123 599, 1129 603, 1136 606, 1142 609, 1149 607, 1155 607, 1162 608, 1168 608, 1175 607, 1181 607, 1188 605, 1194 605, 1201 604, 1207 603, 1214 603, 1220 604, 1227 604, 1233 603, 1240 603, 1246 604, 1253 606, 1259 608, 1266 609, 1272 607, 1279 606, 1285 604, 1292 603, 1298 600, 1305 600, 1312 599, 1312 712, 128 712, 128 569, 134 545, 141 523, 147 486, 154 467, 160 452, 167 442, 173 449, 180 462, 186 478, 193 508, 199 519, 206 530, 212 535, 219 539, 225 543, 232 543, 238 547, 245 550, 251 554, 258 558, 264 561, 271 563, 277 567, 284 569, 290 570, 297 573, 303 570, 310 569, 316 568, 323 567, 329 567, 336 566, 342 569, 349 573, 355 572, 362 571, 368 562, 375 551, 381 529, 388 513, 394 503, 401 491, 407 479, 414 476, 420 476, 427 489, 433 502, 440 508, 446 517, 453 525, 459 532, 466 537, 472 541, 479 545, 485 546, 492 549, 498 550, 505 550, 511 553, 518 554, 524 554, 531 555, 537 542, 544 535, 550 537, 557 534, 563 535, 570 534, 576 532, 583 542, 589 549, 596 551, 602 557, 609 561, 615 563, 622 566, 628 569, 635 571, 641 571, 648 571, 654 571, 661 573, 667 574, 674 575, 680 575, 687 577, 693 581, 700 582, 706 580, 713 581, 720 581, 726 581, 733 581, 739 579, 746 580, 752 582, 759 584, 765 585, 772 585, 778 585, 785 588, 791 588, 798 586, 804 583, 811 583, 817 583, 824 583, 830 582, 837 581, 843 582, 850 585, 856 587, 863 589, 869 591, 876 591, 882 593, 889 593, 895 591, 902 592, 908 592, 915 592, 921 590, 928 590, 934 592, 941 593, 947 594, 954 597, 960 599, 967 600, 973 597, 980 596, 986 594, 993 597, 999 599, 1006 601, 1012 598, 1019 595, 1025 594, 1032 597, 1038 598, 1045 597, 1051 595, 1058 596, 1064 598, 1071 599, 1077 599, 1084 596, 1090 596, 1097 596, 1103 597, 1110 596, 1116 598, 1123 599, 1129 603, 1136 606, 1142 609, 1149 607, 1155 607, 1162 608, 1168 608, 1175 607, 1181 607, 1188 605, 1194 605, 1201 604, 1207 603, 1214 603, 1220 604, 1227 604, 1233 603, 1240 603, 1246 604, 1253 606, 1259 608, 1266 609, 1272 607, 1279 606, 1285 604, 1292 603, 1298 600, 1305 600, 1312 599" fill="#3D5AFE" fill-opacity="0.1" />
<circle cx="166.82" cy="441.87" r="1.5" fill="#3D5AFE" />
<text x="166.82" y="433.87" fill="#3D5AFE" font-family="Ubuntu Mono" font-size="10" text-anchor="middle" alignment-baseline="central" >9251</text>
<polyline points="1312.0 598.44, 1312.0 712" stroke="#3D5AFE" stroke-width="0.25" fill="none" />
<circle cx="1312.0" cy="598.44" r="3" fill="#3D5AFE" />
<circle cx="1312.0" cy="598.44" r="2" fill="#141411" />
<text x="1320.0" y="598.44" fill="#3D5AFE" font-family="Ubuntu Mono" font-size="10" text-anchor="start" alignment-baseline="central" >3889</text>
<circle cx="128" cy="568.07" r="3" fill="#3D5AFE" />
<circle cx="128" cy="568.07" r="2" fill="#141411" />
<text x="120" y="568.07" fill="#3D5AFE" font-family="Ubuntu Mono" font-size="10" text-anchor="end" alignment-baseline="central" >4929</text>
<polyline points="373.86 550.06, 373.86 613.31" stroke="#3D5AFE" stroke-width="0.5" fill="none" />
<circle cx="373.86" cy="613.31" r="1.5" fill="#3D5AFE" />
<text x="365.86" y="613.31" fill="#3D5AFE" font-family="Ubuntu Mono" font-size="12" text-anchor="end" alignment-baseline="central" >v0.4.2</text>
<circle cx="373.86" cy="550.06" r="3" fill="#3D5AFE" />
<circle cx="373.86" cy="550.06" r="2" fill="#141411" />
<text x="373.86" y="558.06" fill="#3D5AFE" font-family="Ubuntu Mono" font-size="12" text-anchor="middle" alignment-baseline="central" ></text>
<polyline points="128 599, 134 546, 141 517, 147 492, 154 449, 160 425, 167 405, 173 387, 180 412, 186 426, 193 438, 199 467, 206 485, 212 502, 219 511, 225 517, 232 525, 238 531, 245 535, 251 545, 258 551, 264 563, 271 571, 277 576, 284 581, 290 584, 297 586, 303 587, 310 587, 316 587, 323 589, 329 587, 336 588, 342 591, 349 589, 355 590, 362 592, 368 591, 375 592, 381 592, 388 592, 394 593, 401 593, 407 593, 414 595, 420 595, 427 598, 433 598, 440 599, 446 599, 453 599, 459 596, 466 597, 472 602, 479 598, 485 594, 492 589, 498 584, 505 579, 511 576, 518 573, 524 574, 531 575, 537 575, 544 575, 550 576, 557 578, 563 577, 570 579, 576 579, 583 581, 589 582, 596 585, 602 586, 609 585, 615 582, 622 588, 628 592, 635 596, 641 598, 648 598, 654 596, 661 597, 667 596, 674 595, 680 596, 687 597, 693 597, 700 597, 706 598, 713 600, 720 601, 726 602, 733 601, 739 600, 746 599, 752 599, 759 597, 765 597, 772 595, 778 595, 785 596, 791 597, 798 597, 804 601, 811 602, 817 605, 824 609, 830 610, 837 610, 843 611, 850 609, 856 609, 863 607, 869 605, 876 605" stroke="#2979FF" stroke-width="1" fill="none" />
<polygon points="128 599, 134 546, 141 517, 147 492, 154 449, 160 425, 167 405, 173 387, 180 412, 186 426, 193 438, 199 467, 206 485, 212 502, 219 511, 225 517, 232 525, 238 531, 245 535, 251 545, 258 551, 264 563, 271 571, 277 576, 284 581, 290 584, 297 586, 303 587, 310 587, 316 587, 323 589, 329 587, 336 588, 342 591, 349 589, 355 590, 362 592, 368 591, 375 592, 381 592, 388 592, 394 593, 401 593, 407 593, 414 595, 420 595, 427 598, 433 598, 440 599, 446 599, 453 599, 459 596, 466 597, 472 602, 479 598, 485 594, 492 589, 498 584, 505 579, 511 576, 518 573, 524 574, 531 575, 537 575, 544 575, 550 576, 557 578, 563 577, 570 579, 576 579, 583 581, 589 582, 596 585, 602 586, 609 585, 615 582, 622 588, 628 592, 635 596, 641 598, 648 598, 654 596, 661 597, 667 596, 674 595, 680 596, 687 597, 693 597, 700 597, 706 598, 713 600, 720 601, 726 602, 733 601, 739 600, 746 599, 752 599, 759 597, 765 597, 772 595, 778 595, 785 596, 791 597, 798 597, 804 601, 811 602, 817 605, 824 609, 830 610, 837 610, 843 611, 850 609, 856 609, 863 607, 869 605, 876 605, 876 712, 128 712, 128 599, 134 546, 141 517, 147 492, 154 449, 160 425, 167 405, 173 387, 180 412, 186 426, 193 438, 199 467, 206 485, 212 502, 219 511, 225 517, 232 525, 238 531, 245 535, 251 545, 258 551, 264 563, 271 571, 277 576, 284 581, 290 584, 297 586, 303 587, 310 587, 316 587, 323 589, 329 587, 336 588, 342 591, 349 589, 355 590, 362 592, 368 591, 375 592, 381 592, 388 592, 394 593, 401 593, 407 593, 414 595, 420 595, 427 598, 433 598, 440 599, 446 599, 453 599, 459 596, 466 597, 472 602, 479 598, 485 594, 492 589, 498 584, 505 579, 511 576, 518 573, 524 574, 531 575, 537 575, 544 575, 550 576, 557 578, 563 577, 570 579, 576 579, 583 581, 589 582, 596 585, 602 586, 609 585, 615 582, 622 588, 628 592, 635 596, 641 598, 648 598, 654 596, 661 597, 667 596, 674 595, 680 596, 687 597, 693 597, 700 597, 706 598, 713 600, 720 601, 726 602, 733 601, 739 600, 746 599, 752 599, 759 597, 765 597, 772 595, 778 595, 785 596, 791 597, 798 597, 804 601, 811 602, 817 605, 824 609, 830 610, 837 610, 843 611, 850 609, 856 609, 863 607, 869 605, 876 605" fill="#2979FF" fill-opacity="0.1" />
<circle cx="173.29" cy="386.33" r="1.5" fill="#2979FF" />
<text x="173.29" y="378.33" fill="#2979FF" font-family="Ubuntu Mono" font-size="10" text-anchor="middle" alignment-baseline="central" >11153</text>
<polyline points="876.13 604.6, 876.13 712" stroke="#2979FF" stroke-width="0.25" fill="none" />
<circle cx="876.13" cy="604.6" r="3" fill="#2979FF" />
<circle cx="876.13" cy="604.6" r="2" fill="#141411" />
<text x="884.13" y="604.6" fill="#2979FF" font-family="Ubuntu Mono" font-size="10" text-anchor="start" alignment-baseline="central" >3678</text>
<circle cx="128" cy="598.44" r="3" fill="#2979FF" />
<circle cx="128" cy="598.44" r="2" fill="#141411" />
<text x="120" y="598.44" fill="#2979FF" font-family="Ubuntu Mono" font-size="10" text-anchor="end" alignment-baseline="central" >3889</text>
<polyline points="212.11 501.64, 212.11 688.0" stroke="#2979FF" stroke-width="0.5" fill="none" />
<circle cx="212.11" cy="688.0" r="1.5" fill="#2979FF" />
<text x="220.11" y="688.0" fill="#2979FF" font-family="Ubuntu Mono" font-size="12" text-anchor="start" alignment-baseline="central" >v0.5.1</text>
<circle cx="212.11" cy="501.64" r="3" fill="#2979FF" />
<circle cx="212.11" cy="501.64" r="2" fill="#141411" />
<text x="212.11" y="509.64" fill="#2979FF" font-family="Ubuntu Mono" font-size="12" text-anchor="middle" alignment-baseline="central" ></text>
<polyline points="470.91 601.57, 470.91 658.83" stroke="#2979FF" stroke-width="0.5" fill="none" />
<circle cx="470.91" cy="658.83" r="1.5" fill="#2979FF" />
<text x="470.91" y="650.83" fill="#2979FF" font-family="Ubuntu Mono" font-size="12" text-anchor="middle" alignment-baseline="central" >Christmas 2015</text>
<circle cx="470.91" cy="601.57" r="3" fill="#2979FF" />
<circle cx="470.91" cy="601.57" r="2" fill="#141411" />
<text x="470.91" y="609.57" fill="#2979FF" font-family="Ubuntu Mono" font-size="12" text-anchor="middle" alignment-baseline="central" ></text>
<polyline points="128 605, 134 560, 141 532, 147 505, 154 484, 160 465, 167 448, 173 432, 180 431, 186 427, 193 435, 199 438, 206 431, 212 420, 219 414, 225 418, 232 428, 238 427, 245 434, 251 451, 258 471, 264 487, 271 487, 277 491, 284 495, 290 501, 297 501, 303 501, 310 496, 316 500, 323 509, 329 507, 336 509, 342 509, 349 507, 355 508, 362 514, 368 521, 375 525, 381 531, 388 537, 394 546, 401 554, 407 554, 414 557, 420 561, 427 564, 433 567, 440 570, 446 571, 453 571, 459 573, 466 574, 472 578, 479 578, 485 578, 492 580, 498 580, 505 582, 511 582, 518 579, 524 579, 531 577, 537 576, 544 575, 550 574, 557 575, 563 577, 570 576, 576 578, 583 580, 589 580, 596 581, 602 578, 609 577, 615 577, 622 579, 628 580, 635 580, 641 582, 648 584, 654 586, 661 587, 667 588, 674 589, 680 586, 687 584, 693 583, 700 581, 706 578, 713 579, 720 577, 726 577, 733 578, 739 579, 746 580, 752 579, 759 577, 765 576, 772 577, 778 576, 785 574, 791 572, 798 573, 804 576, 811 578, 817 580, 824 582, 830 584, 837 585, 843 584, 850 581, 856 579, 863 578, 869 578, 876 578, 882 577, 889 576, 895 575, 902 573, 908 573, 915 571, 921 569, 928 567, 934 567, 941 568, 947 568, 954 568, 960 571, 967 571, 973 571, 980 571, 986 570, 993 572, 999 574, 1006 574, 1012 574" stroke="#00B0FF" stroke-width="1" fill="none" />
<polygon points="128 605, 134 560, 141 532, 147 505, 154 484, 160 465, 167 448, 173 432, 180 431, 186 427, 193 435, 199 438, 206 431, 212 420, 219 414, 225 418, 232 428, 238 427, 245 434, 251 451, 258 471, 264 487, 271 487, 277 491, 284 495, 290 501, 297 501, 303 501, 310 496, 316 500, 323 509, 329 507, 336 509, 342 509, 349 507, 355 508, 362 514, 368 521, 375 525, 381 531, 388 537, 394 546, 401 554, 407 554, 414 557, 420 561, 427 564, 433 567, 440 570, 446 571, 453 571, 459 573, 466 574, 472 578, 479 578, 485 578, 492 580, 498 580, 505 582, 511 582, 518 579, 524 579, 531 577, 537 576, 544 575, 550 574, 557 575, 563 577, 570 576, 576 578, 583 580, 589 580, 596 581, 602 578, 609 577, 615 577, 622 579, 628 580, 635 580, 641 582, 648 584, 654 586, 661 587, 667 588, 674 589, 680 586, 687 584, 693 583, 700 581, 706 578, 713 579, 720 577, 726 577, 733 578, 739 579, 746 580, 752 579, 759 577, 765 576, 772 577, 778 576, 785 574, 791 572, 798 573, 804 576, 811 578, 817 580, 824 582, 830 584, 837 585, 843 584, 850 581, 856 579, 863 578, 869 578, 876 578, 882 577, 889 576, 895 575, 902 573, 908 573, 915 571, 921 569, 928 567, 934 567, 941 568, 947 568, 954 568, 960 571, 967 571, 973 571, 980 571, 986 570, 993 572, 999 574, 1006 574, 1012 574, 1012 712, 128 712, 128 605, 134 560, 141 532, 147 505, 154 484, 160 465, 167 448, 173 432, 180 431, 186 427, 193 435, 199 438, 206 431, 212 420, 219 414, 225 418, 232 428, 238 427, 245 434, 251 451, 258 471, 264 487, 271 487, 277 491, 284 495, 290 501, 297 501, 303 501, 310 496, 316 500, 323 509, 329 507, 336 509, 342 509, 349 507, 355 508, 362 514, 368 521, 375 525, 381 531, 388 537, 394 546, 401 554, 407 554, 414 557, 420 561, 427 564, 433 567, 440 570, 446 571, 453 571, 459 573, 466 574, 472 578, 479 578, 485 578, 492 580, 498 580, 505 582, 511 582, 518 579, 524 579, 531 577, 537 576, 544 575, 550 574, 557 575, 563 577, 570 576, 576 578, 583 580, 589 580, 596 581, 602 578, 609 577, 615 577, 622 579, 628 580, 635 580, 641 582, 648 584, 654 586, 661 587, 667 588, 674 589, 680 586, 687 584, 693 583, 700 581, 706 578, 713 579, 720 577, 726 577, 733 578, 739 579, 746 580, 752 579, 759 577, 765 576, 772 577, 778 576, 785 574, 791 572, 798 573, 804 576, 811 578, 817 580, 824 582, 830 584, 837 585, 843 584, 850 581, 856 579, 863 578, 869 578, 876 578, 882 577, 889 576, 895 575, 902 573, 908 573, 915 571, 921 569, 928 567, 934 567, 941 568, 947 568, 954 568, 960 571, 967 571, 973 571, 980 571, 986 570, 993 572, 999 574, 1006 574, 1012 574" fill="#00B0FF" fill-opacity="0.1" />
<circle cx="218.58" cy="413.14" r="1.5" fill="#00B0FF" />
<text x="218.58" y="405.14" fill="#00B0FF" font-family="Ubuntu Mono" font-size="10" text-anchor="middle" alignment-baseline="central" >10235</text>
<polyline points="1012.75 573.91, 1012.75 712" stroke="#00B0FF" stroke-width="0.25" fill="none" />
<circle cx="1012.75" cy="573.91" r="3" fill="#00B0FF" />
<circle cx="1012.75" cy="573.91" r="2" fill="#141411" />
<text x="1020.75" y="573.91" fill="#00B0FF" font-family="Ubuntu Mono" font-size="10" text-anchor="start" alignment-baseline="central" >4729</text>
<circle cx="128" cy="604.6" r="3" fill="#00B0FF" />
<circle cx="128" cy="604.6" r="2" fill="#141411" />
<text x="120" y="604.6" fill="#00B0FF" font-family="Ubuntu Mono" font-size="10" text-anchor="end" alignment-baseline="central" >3678</text>
<polyline points="263.87 486.17, 263.87 688.0" stroke="#00B0FF" stroke-width="0.5" fill="none" />
<circle cx="263.87" cy="688.0" r="1.5" fill="#00B0FF" />
<text x="271.87" y="688.0" fill="#00B0FF" font-family="Ubuntu Mono" font-size="12" text-anchor="start" alignment-baseline="central" >v0.6.4</text>
<circle cx="263.87" cy="486.17" r="3" fill="#00B0FF" />
<circle cx="263.87" cy="486.17" r="2" fill="#141411" />
<text x="263.87" y="494.17" fill="#00B0FF" font-family="Ubuntu Mono" font-size="12" text-anchor="middle" alignment-baseline="central" ></text>
<polyline points="128 574, 134 538, 141 517, 147 503, 154 493, 160 482, 167 474, 173 466, 180 479, 186 484, 193 479, 199 481, 206 485, 212 486, 219 488, 225 495, 232 505, 238 516, 245 519, 251 519, 258 519, 264 514, 271 512, 277 504, 284 501, 290 506, 297 509, 303 514, 310 520, 316 523, 323 532, 329 538, 336 539, 342 526, 349 519, 355 511, 362 497, 368 481, 375 466, 381 456, 388 451, 394 451, 401 453, 407 459, 414 467, 420 478, 427 486, 433 494, 440 498, 446 504, 453 504, 459 507, 466 510, 472 510, 479 502, 485 499, 492 493, 498 492, 505 489, 511 492, 518 497, 524 497, 531 496, 537 503, 544 509, 550 514, 557 520, 563 523, 570 525, 576 534, 583 543, 589 547, 596 554, 602 558, 609 561, 615 563, 622 567, 628 570, 635 571, 641 572, 648 573, 654 572, 661 570, 667 570, 674 572, 680 571, 687 571, 693 571, 700 567, 706 557, 713 550, 720 544, 726 539, 733 533, 739 527, 746 520, 752 521, 759 523, 765 522, 772 525, 778 529, 785 536, 791 541, 798 548, 804 553, 811 558, 817 561, 824 561, 830 560, 837 561, 843 559, 850 556, 856 555, 863 553, 869 552, 876 549, 882 543, 889 536, 895 532, 902 524, 908 517, 915 509, 921 508, 928 506, 934 507, 941 507, 947 517, 954 524, 960 532, 967 536, 973 537, 980 539, 986 542, 993 545, 999 546, 1006 545, 1012 547, 1019 543, 1025 535, 1032 535, 1038 535, 1045 534, 1051 533, 1058 534, 1064 537, 1071 547, 1077 556, 1084 561, 1090 565, 1097 569, 1103 571, 1110 573, 1116 573, 1123 573, 1129 574, 1136 572, 1142 569, 1149 567, 1155 565, 1162 564, 1168 563, 1175 562, 1181 562, 1188 563, 1194 560, 1201 554, 1207 534, 1214 514, 1220 506, 1227 494, 1233 484, 1240 480" stroke="#00E5FF" stroke-width="1" fill="none" />
<polygon points="128 574, 134 538, 141 517, 147 503, 154 493, 160 482, 167 474, 173 466, 180 479, 186 484, 193 479, 199 481, 206 485, 212 486, 219 488, 225 495, 232 505, 238 516, 245 519, 251 519, 258 519, 264 514, 271 512, 277 504, 284 501, 290 506, 297 509, 303 514, 310 520, 316 523, 323 532, 329 538, 336 539, 342 526, 349 519, 355 511, 362 497, 368 481, 375 466, 381 456, 388 451, 394 451, 401 453, 407 459, 414 467, 420 478, 427 486, 433 494, 440 498, 446 504, 453 504, 459 507, 466 510, 472 510, 479 502, 485 499, 492 493, 498 492, 505 489, 511 492, 518 497, 524 497, 531 496, 537 503, 544 509, 550 514, 557 520, 563 523, 570 525, 576 534, 583 543, 589 547, 596 554, 602 558, 609 561, 615 563, 622 567, 628 570, 635 571, 641 572, 648 573, 654 572, 661 570, 667 570, 674 572, 680 571, 687 571, 693 571, 700 567, 706 557, 713 550, 720 544, 726 539, 733 533, 739 527, 746 520, 752 521, 759 523, 765 522, 772 525, 778 529, 785 536, 791 541, 798 548, 804 553, 811 558, 817 561, 824 561, 830 560, 837 561, 843 559, 850 556, 856 555, 863 553, 869 552, 876 549, 882 543, 889 536, 895 532, 902 524, 908 517, 915 509, 921 508, 928 506, 934 507, 941 507, 947 517, 954 524, 960 532, 967 536, 973 537, 980 539, 986 542, 993 545, 999 546, 1006 545, 1012 547, 1019 543, 1025 535, 1032 535, 1038 535, 1045 534, 1051 533, 1058 534, 1064 537, 1071 547, 1077 556, 1084 561, 1090 565, 1097 569, 1103 571, 1110 573, 1116 573, 1123 573, 1129 574, 1136 572, 1142 569, 1149 567, 1155 565, 1162 564, 1168 563, 1175 562, 1181 562, 1188 563, 1194 560, 1201 554, 1207 534, 1214 514, 1220 506, 1227 494, 1233 484, 1240 480, 1240 712, 128 712, 128 574, 134 538, 141 517, 147 503, 154 493, 160 482, 167 474, 173 466, 180 479, 186 484, 193 479, 199 481, 206 485, 212 486, 219 488, 225 495, 232 505, 238 516, 245 519, 251 519, 258 519, 264 514, 271 512, 277 504, 284 501, 290 506, 297 509, 303 514, 310 520, 316 523, 323 532, 329 538, 336 539, 342 526, 349 519, 355 511, 362 497, 368 481, 375 466, 381 456, 388 451, 394 451, 401 453, 407 459, 414 467, 420 478, 427 486, 433 494, 440 498, 446 504, 453 504, 459 507, 466 510, 472 510, 479 502, 485 499, 492 493, 498 492, 505 489, 511 492, 518 497, 524 497, 531 496, 537 503, 544 509, 550 514, 557 520, 563 523, 570 525, 576 534, 583 543, 589 547, 596 554, 602 558, 609 561, 615 563, 622 567, 628 570, 635 571, 641 572, 648 573, 654 572, 661 570, 667 570, 674 572, 680 571, 687 571, 693 571, 700 567, 706 557, 713 550, 720 544, 726 539, 733 533, 739 527, 746 520, 752 521, 759 523, 765 522, 772 525, 778 529, 785 536, 791 541, 798 548, 804 553, 811 558, 817 561, 824 561, 830 560, 837 561, 843 559, 850 556, 856 555, 863 553, 869 552, 876 549, 882 543, 889 536, 895 532, 902 524, 908 517, 915 509, 921 508, 928 506, 934 507, 941 507, 947 517, 954 524, 960 532, 967 536, 973 537, 980 539, 986 542, 993 545, 999 546, 1006 545, 1012 547, 1019 543, 1025 535, 1032 535, 1038 535, 1045 534, 1051 533, 1058 534, 1064 537, 1071 547, 1077 556, 1084 561, 1090 565, 1097 569, 1103 571, 1110 573, 1116 573, 1123 573, 1129 574, 1136 572, 1142 569, 1149 567, 1155 565, 1162 564, 1168 563, 1175 562, 1181 562, 1188 563, 1194 560, 1201 554, 1207 534, 1214 514, 1220 506, 1227 494, 1233 484, 1240 480" fill="#00E5FF" fill-opacity="0.1" />
<circle cx="386.8" cy="450.57" r="1.5" fill="#00E5FF" />
<text x="386.8" y="442.57" fill="#00E5FF" font-family="Ubuntu Mono" font-size="10" text-anchor="middle" alignment-baseline="central" >8953</text>
<polyline points="1240.44 479.6, 1240.44 712" stroke="#00E5FF" stroke-width="0.25" fill="none" />
<circle cx="1240.44" cy="479.6" r="3" fill="#00E5FF" />
<circle cx="1240.44" cy="479.6" r="2" fill="#141411" />
<text x="1248.44" y="479.6" fill="#00E5FF" font-family="Ubuntu Mono" font-size="10" text-anchor="start" alignment-baseline="central" >7959</text>
<circle cx="128" cy="573.91" r="3" fill="#00E5FF" />
<circle cx="128" cy="573.91" r="2" fill="#141411" />
<text x="120" y="573.91" fill="#00E5FF" font-family="Ubuntu Mono" font-size="10" text-anchor="end" alignment-baseline="central" >4729</text>
<polyline points="237.99 515.16, 237.99 673.63" stroke="#00E5FF" stroke-width="0.5" fill="none" />
<circle cx="237.99" cy="673.63" r="1.5" fill="#00E5FF" />
<text x="237.99" y="665.63" fill="#00E5FF" font-family="Ubuntu Mono" font-size="12" text-anchor="middle" alignment-baseline="central" >v0.7.2</text>
<circle cx="237.99" cy="515.16" r="3" fill="#00E5FF" />
<circle cx="237.99" cy="515.16" r="2" fill="#141411" />
<text x="237.99" y="523.16" fill="#00E5FF" font-family="Ubuntu Mono" font-size="12" text-anchor="middle" alignment-baseline="central" ></text>
<polyline points="335.04 538.81, 335.04 599.76" stroke="#00E5FF" stroke-width="0.5" fill="none" />
<circle cx="335.04" cy="599.76" r="1.5" fill="#00E5FF" />
<text x="335.04" y="591.76" fill="#00E5FF" font-family="Ubuntu Mono" font-size="12" text-anchor="middle" alignment-baseline="central" >v0.7.5</text>
<circle cx="335.04" cy="538.81" r="3" fill="#00E5FF" />
<circle cx="335.04" cy="538.81" r="2" fill="#141411" />
<text x="335.04" y="546.81" fill="#00E5FF" font-family="Ubuntu Mono" font-size="12" text-anchor="middle" alignment-baseline="central" ></text>
<polyline points="470.91 509.82, 470.91 666.98" stroke="#00E5FF" stroke-width="0.5" fill="none" />
<circle cx="470.91" cy="666.98" r="1.5" fill="#00E5FF" />
<text x="478.91" y="666.98" fill="#00E5FF" font-family="Ubuntu Mono" font-size="12" text-anchor="start" alignment-baseline="central" >v0.7.6</text>
<circle cx="470.91" cy="509.82" r="3" fill="#00E5FF" />
<circle cx="470.91" cy="509.82" r="2" fill="#141411" />
<text x="470.91" y="517.8199999999999" fill="#00E5FF" font-family="Ubuntu Mono" font-size="12" text-anchor="middle" alignment-baseline="central" ></text>
<polyline points="697.36 566.55, 697.36 641.28" stroke="#00E5FF" stroke-width="0.5" fill="none" />
<circle cx="697.36" cy="641.28" r="1.5" fill="#00E5FF" />
<text x="697.36" y="633.28" fill="#00E5FF" font-family="Ubuntu Mono" font-size="12" text-anchor="middle" alignment-baseline="central" >v0.7.8</text>
<circle cx="697.36" cy="566.55" r="3" fill="#00E5FF" />
<circle cx="697.36" cy="566.55" r="2" fill="#141411" />
<text x="697.36" y="574.55" fill="#00E5FF" font-family="Ubuntu Mono" font-size="12" text-anchor="middle" alignment-baseline="central" ></text>
<polyline points="878.51 542.99, 878.51 650.8" stroke="#00E5FF" stroke-width="0.5" fill="none" />
<circle cx="878.51" cy="650.8" r="1.5" fill="#00E5FF" />
<text x="878.51" y="642.8" fill="#00E5FF" font-family="Ubuntu Mono" font-size="12" text-anchor="middle" alignment-baseline="central" >Halloween 2016</text>
<circle cx="878.51" cy="542.99" r="3" fill="#00E5FF" />
<circle cx="878.51" cy="542.99" r="2" fill="#141411" />
<text x="878.51" y="550.99" fill="#00E5FF" font-family="Ubuntu Mono" font-size="12" text-anchor="middle" alignment-baseline="central" ></text>
<polyline points="1007.91 546.47, 1007.91 674.04" stroke="#00E5FF" stroke-width="0.5" fill="none" />
<circle cx="1007.91" cy="674.04" r="1.5" fill="#00E5FF" />
<text x="1015.91" y="674.04" fill="#00E5FF" font-family="Ubuntu Mono" font-size="12" text-anchor="start" alignment-baseline="central" >v0.7.11</text>
<circle cx="1007.91" cy="546.47" r="3" fill="#00E5FF" />
<circle cx="1007.91" cy="546.47" r="2" fill="#141411" />
<text x="1007.91" y="554.47" fill="#00E5FF" font-family="Ubuntu Mono" font-size="12" text-anchor="middle" alignment-baseline="central" ></text>
<polyline points="128 480, 134 455, 141 434, 147 430, 154 423, 160 417, 167 410, 173 400, 180 405, 186 429, 193 441, 199 446, 206 455, 212 463, 219 472, 225 484, 232 490, 238 493, 245 502, 251 506, 258 512, 264 520, 271 523, 277 518, 284 518, 290 519, 297 522, 303 523, 310 519, 316 518, 323 515, 329 514, 336 510, 342 507, 349 491, 355 478, 362 471, 368 462, 375 457, 381 456, 388 454, 394 458, 401 458, 407 445, 414 435, 420 427, 427 425, 433 424, 440 423, 446 429, 453 441, 459 446, 466 452, 472 451, 479 453, 485 456, 492 456, 498 454, 505 453, 511 459, 518 464, 524 465, 531 466, 537 468, 544 474, 550 485, 557 495, 563 502, 570 512, 576 523, 583 533, 589 533, 596 526, 602 525, 609 526, 615 520, 622 517, 628 519, 635 525, 641 531, 648 535, 654 538, 661 543, 667 549, 674 549, 680 550, 687 552, 693 555, 700 558, 706 560, 713 562, 720 562, 726 557, 733 555, 739 558, 746 556, 752 553, 759 553, 765 552, 772 554, 778 556, 785 558, 791 563" stroke="#FFC400" stroke-width="1" fill="none" />
<polygon points="128 480, 134 455, 141 434, 147 430, 154 423, 160 417, 167 410, 173 400, 180 405, 186 429, 193 441, 199 446, 206 455, 212 463, 219 472, 225 484, 232 490, 238 493, 245 502, 251 506, 258 512, 264 520, 271 523, 277 518, 284 518, 290 519, 297 522, 303 523, 310 519, 316 518, 323 515, 329 514, 336 510, 342 507, 349 491, 355 478, 362 471, 368 462, 375 457, 381 456, 388 454, 394 458, 401 458, 407 445, 414 435, 420 427, 427 425, 433 424, 440 423, 446 429, 453 441, 459 446, 466 452, 472 451, 479 453, 485 456, 492 456, 498 454, 505 453, 511 459, 518 464, 524 465, 531 466, 537 468, 544 474, 550 485, 557 495, 563 502, 570 512, 576 523, 583 533, 589 533, 596 526, 602 525, 609 526, 615 520, 622 517, 628 519, 635 525, 641 531, 648 535, 654 538, 661 543, 667 549, 674 549, 680 550, 687 552, 693 555, 700 558, 706 560, 713 562, 720 562, 726 557, 733 555, 739 558, 746 556, 752 553, 759 553, 765 552, 772 554, 778 556, 785 558, 791 563, 791 712, 128 712, 128 480, 134 455, 141 434, 147 430, 154 423, 160 417, 167 410, 173 400, 180 405, 186 429, 193 441, 199 446, 206 455, 212 463, 219 472, 225 484, 232 490, 238 493, 245 502, 251 506, 258 512, 264 520, 271 523, 277 518, 284 518, 290 519, 297 522, 303 523, 310 519, 316 518, 323 515, 329 514, 336 510, 342 507, 349 491, 355 478, 362 471, 368 462, 375 457, 381 456, 388 454, 394 458, 401 458, 407 445, 414 435, 420 427, 427 425, 433 424, 440 423, 446 429, 453 441, 459 446, 466 452, 472 451, 479 453, 485 456, 492 456, 498 454, 505 453, 511 459, 518 464, 524 465, 531 466, 537 468, 544 474, 550 485, 557 495, 563 502, 570 512, 576 523, 583 533, 589 533, 596 526, 602 525, 609 526, 615 520, 622 517, 628 519, 635 525, 641 531, 648 535, 654 538, 661 543, 667 549, 674 549, 680 550, 687 552, 693 555, 700 558, 706 560, 713 562, 720 562, 726 557, 733 555, 739 558, 746 556, 752 553, 759 553, 765 552, 772 554, 778 556, 785 558, 791 563" fill="#FFC400" fill-opacity="0.1" />
<circle cx="173.29" cy="399.47" r="1.5" fill="#FFC400" />
<text x="173.29" y="391.47" fill="#FFC400" font-family="Ubuntu Mono" font-size="10" text-anchor="middle" alignment-baseline="central" >10703</text>
<polyline points="791.56 562.06, 791.56 712" stroke="#FFC400" stroke-width="0.25" fill="none" />
<circle cx="791.56" cy="562.06" r="3" fill="#FFC400" />
<circle cx="791.56" cy="562.06" r="2" fill="#141411" />
<text x="799.56" y="562.06" fill="#FFC400" font-family="Ubuntu Mono" font-size="10" text-anchor="start" alignment-baseline="central" >5135</text>
<circle cx="128" cy="479.6" r="3" fill="#FFC400" />
<circle cx="128" cy="479.6" r="2" fill="#141411" />
<text x="120" y="479.6" fill="#FFC400" font-family="Ubuntu Mono" font-size="10" text-anchor="end" alignment-baseline="central" >7959</text>
<polyline points="270.34 522.49, 270.34 675.27" stroke="#FFC400" stroke-width="0.5" fill="none" />
<circle cx="270.34" cy="675.27" r="1.5" fill="#FFC400" />
<text x="270.34" y="667.27" fill="#FFC400" font-family="Ubuntu Mono" font-size="12" text-anchor="middle" alignment-baseline="central" >v0.8.1a</text>
<circle cx="270.34" cy="522.49" r="3" fill="#FFC400" />
<circle cx="270.34" cy="522.49" r="2" fill="#141411" />
<text x="270.34" y="530.49" fill="#FFC400" font-family="Ubuntu Mono" font-size="12" text-anchor="middle" alignment-baseline="central" ></text>
<polyline points="296.22 521.12, 296.22 637.63" stroke="#FFC400" stroke-width="0.5" fill="none" />
<circle cx="296.22" cy="637.63" r="1.5" fill="#FFC400" />
<text x="296.22" y="629.63" fill="#FFC400" font-family="Ubuntu Mono" font-size="12" text-anchor="middle" alignment-baseline="central" >v0.8.1b</text>
<circle cx="296.22" cy="521.12" r="3" fill="#FFC400" />
<circle cx="296.22" cy="521.12" r="2" fill="#141411" />
<text x="296.22" y="529.12" fill="#FFC400" font-family="Ubuntu Mono" font-size="12" text-anchor="middle" alignment-baseline="central" ></text>
<polyline points="399.74 457.7, 399.74 652.99" stroke="#FFC400" stroke-width="0.5" fill="none" />
<circle cx="399.74" cy="652.99" r="1.5" fill="#FFC400" />
<text x="399.74" y="644.99" fill="#FFC400" font-family="Ubuntu Mono" font-size="12" text-anchor="middle" alignment-baseline="central" >v0.8.2</text>
<circle cx="399.74" cy="457.7" r="3" fill="#FFC400" />
<circle cx="399.74" cy="457.7" r="2" fill="#141411" />
<text x="399.74" y="465.7" fill="#FFC400" font-family="Ubuntu Mono" font-size="12" text-anchor="middle" alignment-baseline="central" ></text>
<polyline points="483.85 455.24, 483.85 685.05" stroke="#FFC400" stroke-width="0.5" fill="none" />
<circle cx="483.85" cy="685.05" r="1.5" fill="#FFC400" />
<text x="483.85" y="677.05" fill="#FFC400" font-family="Ubuntu Mono" font-size="12" text-anchor="middle" alignment-baseline="central" >v0.8.3</text>
<circle cx="483.85" cy="455.24" r="3" fill="#FFC400" />
<circle cx="483.85" cy="455.24" r="2" fill="#141411" />
<text x="483.85" y="463.24" fill="#FFC400" font-family="Ubuntu Mono" font-size="12" text-anchor="middle" alignment-baseline="central" ></text>
<polyline points="580.9 532.92, 580.9 671.09" stroke="#FFC400" stroke-width="0.5" fill="none" />
<circle cx="580.9" cy="671.09" r="1.5" fill="#FFC400" />
<text x="580.9" y="663.09" fill="#FFC400" font-family="Ubuntu Mono" font-size="12" text-anchor="middle" alignment-baseline="central" >v0.8.3a</text>
<circle cx="580.9" cy="532.92" r="3" fill="#FFC400" />
<circle cx="580.9" cy="532.92" r="2" fill="#141411" />
<text x="580.9" y="540.92" fill="#FFC400" font-family="Ubuntu Mono" font-size="12" text-anchor="middle" alignment-baseline="central" ></text>
</svg>
