<svg version="1.1" baseProfile="full" width="1440" height="840" xmlns="http://www.w3.org/2000/svg" >
<rect x="0" y="0" width="100%" height="100%" fill="#141411" />
<polyline points="64.0 64, 64.0 776" stroke="#272822" stroke-width="1" fill="none" />
<circle cx="64.0" cy="776" r="1.5" fill="#383830" />
<text x="64.0" y="784" fill="#383830" font-family="Ubuntu Mono" font-size="12" text-anchor="middle" alignment-baseline="central" >0</text>
<polyline points="114.46 64, 114.46 776" stroke="#272822" stroke-width="1" fill="none" />
<circle cx="114.46" cy="776" r="1.5" fill="#383830" />
<text x="114.46" y="784" fill="#383830" font-family="Ubuntu Mono" font-size="12" text-anchor="middle" alignment-baseline="central" >7</text>
<polyline points="164.92 64, 164.92 776" stroke="#272822" stroke-width="1" fill="none" />
<circle cx="164.92" cy="776" r="1.5" fill="#383830" />
<text x="164.92" y="784" fill="#383830" font-family="Ubuntu Mono" font-size="12" text-anchor="middle" alignment-baseline="central" >14</text>
<polyline points="215.38 64, 215.38 776" stroke="#272822" stroke-width="1" fill="none" />
<circle cx="215.38" cy="776" r="1.5" fill="#383830" />
<text x="215.38" y="784" fill="#383830" font-family="Ubuntu Mono" font-size="12" text-anchor="middle" alignment-baseline="central" >21</text>
<polyline points="265.85 64, 265.85 776" stroke="#272822" stroke-width="1" fill="none" />
<circle cx="265.85" cy="776" r="1.5" fill="#383830" />
<text x="265.85" y="784" fill="#383830" font-family="Ubuntu Mono" font-size="12" text-anchor="middle" alignment-baseline="central" >28</text>
<polyline points="316.31 64, 316.31 776" stroke="#272822" stroke-width="1" fill="none" />
<circle cx="316.31" cy="776" r="1.5" fill="#383830" />
<text x="316.31" y="784" fill="#383830" font-family="Ubuntu Mono" font-size="12" text-anchor="middle" alignment-baseline="central" >35</text>
<polyline points="366.77 64, 366.77 776" stroke="#272822" stroke-width="1" fill="none" />
<circle cx="366.77" cy="776" r="1.5" fill="#383830" />
<text x="366.77" y="784" fill="#383830" font-family="Ubuntu Mono" font-size="12" text-anchor="middle" alignment-baseline="central" >42</text>
<polyline points="417.23 64, 417.23 776" stroke="#272822" stroke-width="1" fill="none" />
<circle cx="417.23" cy="776" r="1.5" fill="#383830" />
<text x="417.23" y="784" fill="#383830" font-family="Ubuntu Mono" font-size="12" text-anchor="middle" alignment-baseline="central" >49</text>
<polyline points="467.69 64, 467.69 776" stroke="#272822" stroke-width="1" fill="none" />
<circle cx="467.69" cy="776" r="1.5" fill="#383830" />
<text x="467.69" y="784" fill="#383830" font-family="Ubuntu Mono" font-size="12" text-anchor="middle" alignment-baseline="central" >56</text>
<polyline points="518.15 64, 518.15 776" stroke="#272822" stroke-width="1" fill="none" />
<circle cx="518.15" cy="776" r="1.5" fill="#383830" />
<text x="518.15" y="784" fill="#383830" font-family="Ubuntu Mono" font-size="12" text-anchor="middle" alignment-baseline="central" >63</text>
<polyline points="568.62 64, 568.62 776" stroke="#272822" stroke-width="1" fill="none" />
<circle cx="568.62" cy="776" r="1.5" fill="#383830" />
<text x="568.62" y="784" fill="#383830" font-family="Ubuntu Mono" font-size="12" text-anchor="middle" alignment-baseline="central" >70</text>
<polyline points="619.08 64, 619.08 776" stroke="#272822" stroke-width="1" fill="none" />
<circle cx="619.08" cy="776" r="1.5" fill="#383830" />
<text x="619.08" y="784" fill="#383830" font-family="Ubuntu Mono" font-size="12" text-anchor="middle" alignment-baseline="central" >77</text>
<polyline points="669.54 64, 669.54 776" stroke="#272822" stroke-width="1" fill="none" />
<circle cx="669.54" cy="776" r="1.5" fill="#383830" />
<text x="669.54" y="784" fill="#383830" font-family="Ubuntu Mono" font-size="12" text-anchor="middle" alignment-baseline="central" >84</text>
<polyline points="720.0 64, 720.0 776" stroke="#272822" stroke-width="1" fill="none" />
<circle cx="720.0" cy="776" r="1.5" fill="#383830" />
<text x="720.0" y="784" fill="#383830" font-family="Ubuntu Mono" font-size="12" text-anchor="middle" alignment-baseline="central" >91</text>
<polyline points="770.46 64, 770.46 776" stroke="#272822" stroke-width="1" fill="none" />
<circle cx="770.46" cy="776" r="1.5" fill="#383830" />
<text x="770.46" y="784" fill="#383830" font-family="Ubuntu Mono" font-size="12" text-anchor="middle" alignment-baseline="central" >98</text>
<polyline points="820.92 64, 820.92 776" stroke="#272822" stroke-width="1" fill="none" />
<circle cx="820.92" cy="776" r="1.5" fill="#383830" />
<text x="820.92" y="784" fill="#383830" font-family="Ubuntu Mono" font-size="12" text-anchor="middle" alignment-baseline="central" >105</text>
<polyline points="871.38 64, 871.38 776" stroke="#272822" stroke-width="1" fill="none" />
<circle cx="871.38" cy="776" r="1.5" fill="#383830" />
<text x="871.38" y="784" fill="#383830" font-family="Ubuntu Mono" font-size="12" text-anchor="middle" alignment-baseline="central" >112</text>
<polyline points="921.85 64, 921.85 776" stroke="#272822" stroke-width="1" fill="none" />
<circle cx="921.85" cy="776" r="1.5" fill="#383830" />
<text x="921.85" y="784" fill="#383830" font-family="Ubuntu Mono" font-size="12" text-anchor="middle" alignment-baseline="central" >119</text>
<polyline points="972.31 64, 972.31 776" stroke="#272822" stroke-width="1" fill="none" />
<circle cx="972.31" cy="776" r="1.5" fill="#383830" />
<text x="972.31" y="784" fill="#383830" font-family="Ubuntu Mono" font-size="12" text-anchor="middle" alignment-baseline="central" >126</text>
<polyline points="1022.77 64, 1022.77 776" stroke="#272822" stroke-width="1" fill="none" />
<circle cx="1022.77" cy="776" r="1.5" fill="#383830" />
<text x="1022.77" y="784" fill="#383830" font-family="Ubuntu Mono" font-size="12" text-anchor="middle" alignment-baseline="central" >133</text>
<polyline points="1073.23 64, 1073.23 776" stroke="#272822" stroke-width="1" fill="none" />
<circle cx="1073.23" cy="776" r="1.5" fill="#383830" />
<text x="1073.23" y="784" fill="#383830" font-family="Ubuntu Mono" font-size="12" text-anchor="middle" alignment-baseline="central" >140</text>
<polyline points="1123.69 64, 1123.69 776" stroke="#272822" stroke-width="1" fill="none" />
<circle cx="1123.69" cy="776" r="1.5" fill="#383830" />
<text x="1123.69" y="784" fill="#383830" font-family="Ubuntu Mono" font-size="12" text-anchor="middle" alignment-baseline="central" >147</text>
<polyline points="1174.15 64, 1174.15 776" stroke="#272822" stroke-width="1" fill="none" />
<circle cx="1174.15" cy="776" r="1.5" fill="#383830" />
<text x="1174.15" y="784" fill="#383830" font-family="Ubuntu Mono" font-size="12" text-anchor="middle" alignment-baseline="central" >154</text>
<polyline points="1224.62 64, 1224.62 776" stroke="#272822" stroke-width="1" fill="none" />
<circle cx="1224.62" cy="776" r="1.5" fill="#383830" />
<text x="1224.62" y="784" fill="#383830" font-family="Ubuntu Mono" font-size="12" text-anchor="middle" alignment-baseline="central" >161</text>
<polyline points="1275.08 64, 1275.08 776" stroke="#272822" stroke-width="1" fill="none" />
<circle cx="1275.08" cy="776" r="1.5" fill="#383830" />
<text x="1275.08" y="784" fill="#383830" font-family="Ubuntu Mono" font-size="12" text-anchor="middle" alignment-baseline="central" >168</text>
<polyline points="1325.54 64, 1325.54 776" stroke="#272822" stroke-width="1" fill="none" />
<circle cx="1325.54" cy="776" r="1.5" fill="#383830" />
<text x="1325.54" y="784" fill="#383830" font-family="Ubuntu Mono" font-size="12" text-anchor="middle" alignment-baseline="central" >175</text>
<polyline points="1376.0 64, 1376.0 776" stroke="#272822" stroke-width="1" fill="none" />
<circle cx="1376.0" cy="776" r="1.5" fill="#383830" />
<text x="1376.0" y="784" fill="#383830" font-family="Ubuntu Mono" font-size="12" text-anchor="middle" alignment-baseline="central" >182</text>
<polyline points="64 776.0, 1376 776.0" stroke="#272822" stroke-width="1" fill="none" />
<circle cx="64" cy="776.0" r="1.5" fill="#383830" />
<text x="56" y="776.0" fill="#383830" font-family="Ubuntu Mono" font-size="12" text-anchor="end" alignment-baseline="central" >0</text>
<polyline points="64 740.4, 1376 740.4" stroke="#272822" stroke-width="1" fill="none" />
<circle cx="64" cy="740.4" r="1.5" fill="#383830" />
<text x="56" y="740.4" fill="#383830" font-family="Ubuntu Mono" font-size="12" text-anchor="end" alignment-baseline="central" >1000</text>
<polyline points="64 704.8, 1376 704.8" stroke="#272822" stroke-width="1" fill="none" />
<circle cx="64" cy="704.8" r="1.5" fill="#383830" />
<text x="56" y="704.8" fill="#383830" font-family="Ubuntu Mono" font-size="12" text-anchor="end" alignment-baseline="central" >2000</text>
<polyline points="64 669.2, 1376 669.2" stroke="#272822" stroke-width="1" fill="none" />
<circle cx="64" cy="669.2" r="1.5" fill="#383830" />
<text x="56" y="669.2" fill="#383830" font-family="Ubuntu Mono" font-size="12" text-anchor="end" alignment-baseline="central" >3000</text>
<polyline points="64 633.6, 1376 633.6" stroke="#272822" stroke-width="1" fill="none" />
<circle cx="64" cy="633.6" r="1.5" fill="#383830" />
<text x="56" y="633.6" fill="#383830" font-family="Ubuntu Mono" font-size="12" text-anchor="end" alignment-baseline="central" >4000</text>
<polyline points="64 598.0, 1376 598.0" stroke="#272822" stroke-width="1" fill="none" />
<circle cx="64" cy="598.0" r="1.5" fill="#383830" />
<text x="56" y="598.0" fill="#383830" font-family="Ubuntu Mono" font-size="12" text-anchor="end" alignment-baseline="central" >5000</text>
<polyline points="64 562.4, 1376 562.4" stroke="#272822" stroke-width="1" fill="none" />
<circle cx="64" cy="562.4" r="1.5" fill="#383830" />
<text x="56" y="562.4" fill="#383830" font-family="Ubuntu Mono" font-size="12" text-anchor="end" alignment-baseline="central" >6000</text>
<polyline points="64 526.8, 1376 526.8" stroke="#272822" stroke-width="1" fill="none" />
<circle cx="64" cy="526.8" r="1.5" fill="#383830" />
<text x="56" y="526.8" fill="#383830" font-family="Ubuntu Mono" font-size="12" text-anchor="end" alignment-baseline="central" >7000</text>
<polyline points="64 491.2, 1376 491.2" stroke="#272822" stroke-width="1" fill="none" />
<circle cx="64" cy="491.2" r="1.5" fill="#383830" />
<text x="56" y="491.2" fill="#383830" font-family="Ubuntu Mono" font-size="12" text-anchor="end" alignment-baseline="central" >8000</text>
<polyline points="64 455.6, 1376 455.6" stroke="#272822" stroke-width="1" fill="none" />
<circle cx="64" cy="455.6" r="1.5" fill="#383830" />
<text x="56" y="455.6" fill="#383830" font-family="Ubuntu Mono" font-size="12" text-anchor="end" alignment-baseline="central" >9000</text>
<polyline points="64 420.0, 1376 420.0" stroke="#272822" stroke-width="1" fill="none" />
<circle cx="64" cy="420.0" r="1.5" fill="#383830" />
<text x="56" y="420.0" fill="#383830" font-family="Ubuntu Mono" font-size="12" text-anchor="end" alignment-baseline="central" >10000</text>
<polyline points="64 384.4, 1376 384.4" stroke="#272822" stroke-width="1" fill="none" />
<circle cx="64" cy="384.4" r="1.5" fill="#383830" />
<text x="56" y="384.4" fill="#383830" font-family="Ubuntu Mono" font-size="12" text-anchor="end" alignment-baseline="central" >11000</text>
<polyline points="64 348.8, 1376 348.8" stroke="#272822" stroke-width="1" fill="none" />
<circle cx="64" cy="348.8" r="1.5" fill="#383830" />
<text x="56" y="348.8" fill="#383830" font-family="Ubuntu Mono" font-size="12" text-anchor="end" alignment-baseline="central" >12000</text>
<polyline points="64 313.2, 1376 313.2" stroke="#272822" stroke-width="1" fill="none" />
<circle cx="64" cy="313.2" r="1.5" fill="#383830" />
<text x="56" y="313.2" fill="#383830" font-family="Ubuntu Mono" font-size="12" text-anchor="end" alignment-baseline="central" >13000</text>
<polyline points="64 277.6, 1376 277.6" stroke="#272822" stroke-width="1" fill="none" />
<circle cx="64" cy="277.6" r="1.5" fill="#383830" />
<text x="56" y="277.6" fill="#383830" font-family="Ubuntu Mono" font-size="12" text-anchor="end" alignment-baseline="central" >14000</text>
<polyline points="64 242.0, 1376 242.0" stroke="#272822" stroke-width="1" fill="none" />
<circle cx="64" cy="242.0" r="1.5" fill="#383830" />
<text x="56" y="242.0" fill="#383830" font-family="Ubuntu Mono" font-size="12" text-anchor="end" alignment-baseline="central" >15000</text>
<polyline points="64 206.4, 1376 206.4" stroke="#272822" stroke-width="1" fill="none" />
<circle cx="64" cy="206.4" r="1.5" fill="#383830" />
<text x="56" y="206.4" fill="#383830" font-family="Ubuntu Mono" font-size="12" text-anchor="end" alignment-baseline="central" >16000</text>
<polyline points="64 170.8, 1376 170.8" stroke="#272822" stroke-width="1" fill="none" />
<circle cx="64" cy="170.8" r="1.5" fill="#383830" />
<text x="56" y="170.8" fill="#383830" font-family="Ubuntu Mono" font-size="12" text-anchor="end" alignment-baseline="central" >17000</text>
<polyline points="64 135.2, 1376 135.2" stroke="#272822" stroke-width="1" fill="none" />
<circle cx="64" cy="135.2" r="1.5" fill="#383830" />
<text x="56" y="135.2" fill="#383830" font-family="Ubuntu Mono" font-size="12" text-anchor="end" alignment-baseline="central" >18000</text>
<polyline points="64 99.6, 1376 99.6" stroke="#272822" stroke-width="1" fill="none" />
<circle cx="64" cy="99.6" r="1.5" fill="#383830" />
<text x="56" y="99.6" fill="#383830" font-family="Ubuntu Mono" font-size="12" text-anchor="end" alignment-baseline="central" >19000</text>
<polyline points="64 64.0, 1376 64.0" stroke="#272822" stroke-width="1" fill="none" />
<circle cx="64" cy="64.0" r="1.5" fill="#383830" />
<text x="56" y="64.0" fill="#383830" font-family="Ubuntu Mono" font-size="12" text-anchor="end" alignment-baseline="central" >20000</text>
<rect x="64" y="64" width="1312" height="712" stroke="#595959" stroke-width="1" fill="none" />
<text x="720" y="88" fill="#673AB7" font-family="Ubuntu Mono" font-size="18" text-anchor="middle" alignment-baseline="central" >Castle Story - WEEKLY ACTIVE USERS</text>
<circle cx="88" cy="88" r="1.5" fill="#4CAF50" />
<text x="96" y="88" fill="#4CAF50" font-family="Ubuntu Mono" font-size="12" text-anchor="start" alignment-baseline="central" >Release 0.3: 17 Dec 2014</text>
<polyline points="64 533, 71 474, 78 423, 85 372, 92 338, 100 309, 107 282, 114 259, 121 281, 129 307, 136 348, 143 378, 150 397, 158 421, 165 445, 172 452, 179 460, 187 473, 194 477, 201 479, 208 486, 216 495, 223 506, 230 510, 237 508, 245 509, 252 517, 259 520, 266 526, 274 531, 281 534, 288 534, 295 537, 303 536, 310 539, 317 540, 324 540, 332 539, 339 538, 346 537, 353 538, 361 529, 368 516, 375 510, 382 507, 390 501, 397 501, 404 503, 411 511, 419 524, 426 529, 433 535, 440 541, 448 547, 455 548, 462 550, 469 549, 477 553, 484 554, 491 556, 498 560, 506 557, 513 550, 520 539, 527 532, 535 526, 542 522, 549 515, 556 514, 564 520, 571 527, 578 533, 585 537, 593 539, 600 546, 607 554, 614 561, 622 568, 629 574, 636 577, 643 578, 651 580, 658 578, 665 580, 672 584, 680 588, 687 591, 694 597, 701 602, 709 612, 716 614, 723 614, 730 615, 738 613, 745 610, 752 611, 759 608, 767 608, 774 608, 781 606, 788 606, 796 609, 803 615, 810 611, 817 598, 825 592, 832 585, 839 571, 846 565, 854 556, 861 553, 868 562, 875 566, 883 573, 890 583, 897 587, 904 594, 912 603, 919 608, 926 613, 933 617, 941 621, 948 625, 955 627, 962 628, 970 630, 977 631, 984 630, 991 629, 999 625, 1006 625, 1013 623" stroke="#141411" stroke-width="3" fill="none" />
<polyline points="64 533, 71 474, 78 423, 85 372, 92 338, 100 309, 107 282, 114 259, 121 281, 129 307, 136 348, 143 378, 150 397, 158 421, 165 445, 172 452, 179 460, 187 473, 194 477, 201 479, 208 486, 216 495, 223 506, 230 510, 237 508, 245 509, 252 517, 259 520, 266 526, 274 531, 281 534, 288 534, 295 537, 303 536, 310 539, 317 540, 324 540, 332 539, 339 538, 346 537, 353 538, 361 529, 368 516, 375 510, 382 507, 390 501, 397 501, 404 503, 411 511, 419 524, 426 529, 433 535, 440 541, 448 547, 455 548, 462 550, 469 549, 477 553, 484 554, 491 556, 498 560, 506 557, 513 550, 520 539, 527 532, 535 526, 542 522, 549 515, 556 514, 564 520, 571 527, 578 533, 585 537, 593 539, 600 546, 607 554, 614 561, 622 568, 629 574, 636 577, 643 578, 651 580, 658 578, 665 580, 672 584, 680 588, 687 591, 694 597, 701 602, 709 612, 716 614, 723 614, 730 615, 738 613, 745 610, 752 611, 759 608, 767 608, 774 608, 781 606, 788 606, 796 609, 803 615, 810 611, 817 598, 825 592, 832 585, 839 571, 846 565, 854 556, 861 553, 868 562, 875 566, 883 573, 890 583, 897 587, 904 594, 912 603, 919 608, 926 613, 933 617, 941 621, 948 625, 955 627, 962 628, 970 630, 977 631, 984 630, 991 629, 999 625, 1006 625, 1013 623" stroke="#4CAF50" stroke-width="1" fill="none" />
<circle cx="114.46" cy="258.73" r="1.5" fill="#4CAF50" />
<text x="114.46" y="250.73000000000002" fill="#4CAF50" font-family="Ubuntu Mono" font-size="12" text-anchor="middle" alignment-baseline="central" >14530</text>
<circle cx="1013.57" cy="622.85" r="1.5" fill="#4CAF50" />
<text x="1021.57" y="622.85" fill="#4CAF50" font-family="Ubuntu Mono" font-size="12" text-anchor="start" alignment-baseline="central" >4302</text>
<polyline points="1013.57 622.85, 1013.57 776" stroke="#4CAF50" stroke-width="0.25" fill="none" />
<circle cx="64.0" cy="532.21" r="1.5" fill="#4CAF50" />
<text x="56.0" y="532.21" fill="#4CAF50" font-family="Ubuntu Mono" font-size="12" text-anchor="end" alignment-baseline="central" >6848</text>
<circle cx="88" cy="100" r="1.5" fill="#8BC34A" />
<text x="96" y="100" fill="#8BC34A" font-family="Ubuntu Mono" font-size="12" text-anchor="start" alignment-baseline="central" >Release 0.4: </text>
<polyline points="64 601, 71 572, 78 545, 85 501, 92 478, 100 459, 107 447, 114 455, 121 471, 129 491, 136 528, 143 541, 150 554, 158 560, 165 565, 172 570, 179 570, 187 575, 194 579, 201 583, 208 589, 216 591, 223 594, 230 599, 237 601, 245 603, 252 607, 259 603, 266 601, 274 600, 281 600, 288 599, 295 597, 303 602, 310 606, 317 606, 324 604, 332 593, 339 579, 346 552, 353 533, 361 521, 368 507, 375 492, 382 488, 390 489, 397 504, 404 520, 411 528, 419 539, 426 548, 433 556, 440 563, 448 567, 455 572, 462 574, 469 577, 477 578, 484 578, 491 582, 498 583, 506 583, 513 584, 520 569, 527 561, 535 562, 542 559, 549 560, 556 559, 564 556, 571 568, 578 577, 585 579, 593 587, 600 592, 607 595, 614 598, 622 602, 629 604, 636 604, 643 604, 651 604, 658 607, 665 607, 672 608, 680 608, 687 611, 694 616, 701 617, 709 615, 716 616, 723 616, 730 616, 738 616, 745 614, 752 615, 759 618, 767 620, 774 621, 781 621, 788 621, 796 624, 803 625, 810 622, 817 619, 825 618, 832 618, 839 619, 846 618, 854 616, 861 617, 868 621, 875 623, 883 625, 890 628, 897 628, 904 631, 912 630, 919 629, 926 629, 933 629, 941 629, 948 627, 955 628, 962 629, 970 631, 977 632, 984 636, 991 638, 999 639, 1006 635, 1013 634, 1020 632, 1028 636, 1035 638, 1042 640, 1049 637, 1057 634, 1064 631, 1071 636, 1078 637, 1086 635, 1093 633, 1100 634, 1107 637, 1115 638, 1122 638, 1129 634, 1136 634, 1144 634, 1151 635, 1158 634, 1165 637, 1173 638, 1180 643, 1187 646, 1194 650, 1202 648, 1209 648, 1216 649, 1223 649, 1231 647, 1238 648, 1245 646, 1252 645, 1260 645, 1267 643, 1274 643, 1281 644, 1289 644, 1296 643, 1303 643, 1310 644, 1318 647, 1325 649, 1332 651, 1339 648, 1347 647, 1354 645, 1361 643, 1368 639, 1376 639" stroke="#141411" stroke-width="3" fill="none" />
<polyline points="64 601, 71 572, 78 545, 85 501, 92 478, 100 459, 107 447, 114 455, 121 471, 129 491, 136 528, 143 541, 150 554, 158 560, 165 565, 172 570, 179 570, 187 575, 194 579, 201 583, 208 589, 216 591, 223 594, 230 599, 237 601, 245 603, 252 607, 259 603, 266 601, 274 600, 281 600, 288 599, 295 597, 303 602, 310 606, 317 606, 324 604, 332 593, 339 579, 346 552, 353 533, 361 521, 368 507, 375 492, 382 488, 390 489, 397 504, 404 520, 411 528, 419 539, 426 548, 433 556, 440 563, 448 567, 455 572, 462 574, 469 577, 477 578, 484 578, 491 582, 498 583, 506 583, 513 584, 520 569, 527 561, 535 562, 542 559, 549 560, 556 559, 564 556, 571 568, 578 577, 585 579, 593 587, 600 592, 607 595, 614 598, 622 602, 629 604, 636 604, 643 604, 651 604, 658 607, 665 607, 672 608, 680 608, 687 611, 694 616, 701 617, 709 615, 716 616, 723 616, 730 616, 738 616, 745 614, 752 615, 759 618, 767 620, 774 621, 781 621, 788 621, 796 624, 803 625, 810 622, 817 619, 825 618, 832 618, 839 619, 846 618, 854 616, 861 617, 868 621, 875 623, 883 625, 890 628, 897 628, 904 631, 912 630, 919 629, 926 629, 933 629, 941 629, 948 627, 955 628, 962 629, 970 631, 977 632, 984 636, 991 638, 999 639, 1006 635, 1013 634, 1020 632, 1028 636, 1035 638, 1042 640, 1049 637, 1057 634, 1064 631, 1071 636, 1078 637, 1086 635, 1093 633, 1100 634, 1107 637, 1115 638, 1122 638, 1129 634, 1136 634, 1144 634, 1151 635, 1158 634, 1165 637, 1173 638, 1180 643, 1187 646, 1194 650, 1202 648, 1209 648, 1216 649, 1223 649, 1231 647, 1238 648, 1245 646, 1252 645, 1260 645, 1267 643, 1274 643, 1281 644, 1289 644, 1296 643, 1303 643, 1310 644, 1318 647, 1325 649, 1332 651, 1339 648, 1347 647, 1354 645, 1361 643, 1368 639, 1376 639" stroke="#8BC34A" stroke-width="1" fill="none" />
<circle cx="107.25" cy="446.66" r="1.5" fill="#8BC34A" />
<text x="107.25" y="438.66" fill="#8BC34A" font-family="Ubuntu Mono" font-size="12" text-anchor="middle" alignment-baseline="central" >9251</text>
<circle cx="1376.0" cy="638.51" r="1.5" fill="#8BC34A" />
<text x="1384.0" y="638.51" fill="#8BC34A" font-family="Ubuntu Mono" font-size="12" text-anchor="start" alignment-baseline="central" >3862</text>
<polyline points="1376.0 638.51, 1376.0 776" stroke="#8BC34A" stroke-width="0.25" fill="none" />
<circle cx="64.0" cy="600.53" r="1.5" fill="#8BC34A" />
<text x="56.0" y="600.53" fill="#8BC34A" font-family="Ubuntu Mono" font-size="12" text-anchor="end" alignment-baseline="central" >4929</text>
<circle cx="88" cy="112" r="1.5" fill="#CDDC39" />
<text x="96" y="112" fill="#CDDC39" font-family="Ubuntu Mono" font-size="12" text-anchor="start" alignment-baseline="central" >Release 0.5: </text>
<polyline points="64 638, 71 573, 78 539, 85 508, 92 455, 100 426, 107 402, 114 379, 121 410, 129 428, 136 442, 143 477, 150 499, 158 520, 165 531, 172 538, 179 548, 187 555, 194 560, 201 572, 208 580, 216 595, 223 604, 230 610, 237 616, 245 620, 252 622, 259 623, 266 623, 274 623, 281 625, 288 624, 295 624, 303 629, 310 626, 317 628, 324 630, 332 628, 339 630, 346 630, 353 630, 361 631, 368 631, 375 631, 382 634, 390 634, 397 636, 404 637, 411 638, 419 638, 426 638, 433 634, 440 636, 448 642, 455 637, 462 632, 469 626, 477 620, 484 614, 491 610, 498 606, 506 608, 513 609, 520 609, 527 609, 535 610, 542 612, 549 611, 556 614, 564 614, 571 616, 578 617, 585 621, 593 622, 600 621, 607 618, 614 625, 622 630, 629 634, 636 637, 643 637, 651 635, 658 636, 665 635, 672 633, 680 634, 687 635, 694 635, 701 636, 709 637, 716 639, 723 641, 730 642, 738 640, 745 639, 752 638, 759 638, 767 635, 774 636, 781 634, 788 633, 796 634, 803 636, 810 636, 817 641, 825 642, 832 646, 839 650, 846 651, 854 652, 861 653, 868 650, 875 650, 883 648, 890 646" stroke="#141411" stroke-width="3" fill="none" />
<polyline points="64 638, 71 573, 78 539, 85 508, 92 455, 100 426, 107 402, 114 379, 121 410, 129 428, 136 442, 143 477, 150 499, 158 520, 165 531, 172 538, 179 548, 187 555, 194 560, 201 572, 208 580, 216 595, 223 604, 230 610, 237 616, 245 620, 252 622, 259 623, 266 623, 274 623, 281 625, 288 624, 295 624, 303 629, 310 626, 317 628, 324 630, 332 628, 339 630, 346 630, 353 630, 361 631, 368 631, 375 631, 382 634, 390 634, 397 636, 404 637, 411 638, 419 638, 426 638, 433 634, 440 636, 448 642, 455 637, 462 632, 469 626, 477 620, 484 614, 491 610, 498 606, 506 608, 513 609, 520 609, 527 609, 535 610, 542 612, 549 611, 556 614, 564 614, 571 616, 578 617, 585 621, 593 622, 600 621, 607 618, 614 625, 622 630, 629 634, 636 637, 643 637, 651 635, 658 636, 665 635, 672 633, 680 634, 687 635, 694 635, 701 636, 709 637, 716 639, 723 641, 730 642, 738 640, 745 639, 752 638, 759 638, 767 635, 774 636, 781 634, 788 633, 796 634, 803 636, 810 636, 817 641, 825 642, 832 646, 839 650, 846 651, 854 652, 861 653, 868 650, 875 650, 883 648, 890 646" stroke="#CDDC39" stroke-width="1" fill="none" />
<circle cx="114.46" cy="378.95" r="1.5" fill="#CDDC39" />
<text x="114.46" y="370.95" fill="#CDDC39" font-family="Ubuntu Mono" font-size="12" text-anchor="middle" alignment-baseline="central" >11153</text>
<circle cx="890.34" cy="645.45" r="1.5" fill="#CDDC39" />
<text x="898.34" y="645.45" fill="#CDDC39" font-family="Ubuntu Mono" font-size="12" text-anchor="start" alignment-baseline="central" >3667</text>
<polyline points="890.34 645.45, 890.34 776" stroke="#CDDC39" stroke-width="0.25" fill="none" />
<circle cx="64.0" cy="637.55" r="1.5" fill="#CDDC39" />
<text x="56.0" y="637.55" fill="#CDDC39" font-family="Ubuntu Mono" font-size="12" text-anchor="end" alignment-baseline="central" >3889</text>
<circle cx="88" cy="124" r="1.5" fill="#FFC107" />
<text x="96" y="124" fill="#FFC107" font-family="Ubuntu Mono" font-size="12" text-anchor="start" alignment-baseline="central" >Release 0.6: </text>
<polyline points="64 646, 71 590, 78 556, 85 524, 92 498, 100 474, 107 455, 114 434, 121 433, 129 428, 136 438, 143 442, 150 434, 158 420, 165 412, 172 417, 179 430, 187 429, 194 437, 201 457, 208 482, 216 501, 223 502, 230 506, 237 511, 245 519, 252 519, 259 519, 266 513, 274 517, 281 529, 288 526, 295 528, 303 529, 310 526, 317 527, 324 535, 332 543, 339 548, 346 556, 353 563, 361 573, 368 584, 375 583, 382 587, 390 592, 397 596, 404 599, 411 602, 419 604, 426 603, 433 606, 440 608, 448 612, 455 613, 462 613, 469 615, 477 615, 484 618, 491 617, 498 614, 506 614, 513 611, 520 610, 527 609, 535 608, 542 608, 549 611, 556 610, 564 613, 571 615, 578 616, 585 616, 593 613, 600 612, 607 612, 614 614, 622 615, 629 615, 636 617, 643 620, 651 622, 658 624, 665 625, 672 625, 680 622, 687 620, 694 618, 701 616, 709 613, 716 614, 723 611, 730 611, 738 613, 745 614, 752 615, 759 614, 767 611, 774 610, 781 611, 788 610, 796 607, 803 605, 810 606, 817 610, 825 613, 832 615, 839 618, 846 619, 854 621, 861 619, 868 616, 875 614, 883 613, 890 612, 897 612, 904 611, 912 610, 919 608, 926 607, 933 606, 941 604, 948 602, 955 599, 962 599, 970 601, 977 600, 984 600, 991 605, 999 604, 1006 604, 1013 605, 1020 603, 1028 605, 1035 607, 1042 608, 1049 608" stroke="#141411" stroke-width="3" fill="none" />
<polyline points="64 646, 71 590, 78 556, 85 524, 92 498, 100 474, 107 455, 114 434, 121 433, 129 428, 136 438, 143 442, 150 434, 158 420, 165 412, 172 417, 179 430, 187 429, 194 437, 201 457, 208 482, 216 501, 223 502, 230 506, 237 511, 245 519, 252 519, 259 519, 266 513, 274 517, 281 529, 288 526, 295 528, 303 529, 310 526, 317 527, 324 535, 332 543, 339 548, 346 556, 353 563, 361 573, 368 584, 375 583, 382 587, 390 592, 397 596, 404 599, 411 602, 419 604, 426 603, 433 606, 440 608, 448 612, 455 613, 462 613, 469 615, 477 615, 484 618, 491 617, 498 614, 506 614, 513 611, 520 610, 527 609, 535 608, 542 608, 549 611, 556 610, 564 613, 571 615, 578 616, 585 616, 593 613, 600 612, 607 612, 614 614, 622 615, 629 615, 636 617, 643 620, 651 622, 658 624, 665 625, 672 625, 680 622, 687 620, 694 618, 701 616, 709 613, 716 614, 723 611, 730 611, 738 613, 745 614, 752 615, 759 614, 767 611, 774 610, 781 611, 788 610, 796 607, 803 605, 810 606, 817 610, 825 613, 832 615, 839 618, 846 619, 854 621, 861 619, 868 616, 875 614, 883 613, 890 612, 897 612, 904 611, 912 610, 919 608, 926 607, 933 606, 941 604, 948 602, 955 599, 962 599, 970 601, 977 600, 984 600, 991 605, 999 604, 1006 604, 1013 605, 1020 603, 1028 605, 1035 607, 1042 608, 1049 608" stroke="#FFC107" stroke-width="1" fill="none" />
<circle cx="164.92" cy="411.63" r="1.5" fill="#FFC107" />
<text x="164.92" y="403.63" fill="#FFC107" font-family="Ubuntu Mono" font-size="12" text-anchor="middle" alignment-baseline="central" >10235</text>
<circle cx="1049.81" cy="607.65" r="1.5" fill="#FFC107" />
<text x="1057.81" y="607.65" fill="#FFC107" font-family="Ubuntu Mono" font-size="12" text-anchor="start" alignment-baseline="central" >4729</text>
<polyline points="1049.81 607.65, 1049.81 776" stroke="#FFC107" stroke-width="0.25" fill="none" />
<circle cx="64.0" cy="645.06" r="1.5" fill="#FFC107" />
<text x="56.0" y="645.06" fill="#FFC107" font-family="Ubuntu Mono" font-size="12" text-anchor="end" alignment-baseline="central" >3678</text>
<circle cx="88" cy="136" r="1.5" fill="#FF9800" />
<text x="96" y="136" fill="#FF9800" font-family="Ubuntu Mono" font-size="12" text-anchor="start" alignment-baseline="central" >Release 0.7: </text>
<polyline points="64 608, 71 563, 78 539, 85 522, 92 508, 100 496, 107 486, 114 476, 121 492, 129 497, 136 491, 143 494, 150 499, 158 501, 165 502, 172 512, 179 523, 187 537, 194 540, 201 541, 208 541, 216 534, 223 532, 230 523, 237 519, 245 525, 252 528, 259 534, 266 542, 274 546, 281 556, 288 564, 295 565, 303 549, 310 540, 317 531, 324 513, 332 494, 339 476, 346 463, 353 458, 361 458, 368 460, 375 467, 382 477, 390 490, 397 501, 404 510, 411 515, 419 522, 426 523, 433 526, 440 529, 448 530, 455 520, 462 516, 469 509, 477 507, 484 504, 491 508, 498 513, 506 514, 513 513, 520 521, 527 528, 535 535, 542 541, 549 546, 556 548, 564 559, 571 569, 578 574, 585 583, 593 589, 600 592, 607 594, 614 599, 622 603, 629 605, 636 605, 643 606, 651 605, 658 603, 665 603, 672 605, 680 605, 687 605, 694 604, 701 599, 709 587, 716 579, 723 571, 730 565, 738 558, 745 550, 752 542, 759 543, 767 545, 774 544, 781 548, 788 553, 796 561, 803 568, 810 576, 817 582, 825 588, 832 592, 839 591, 846 591, 854 592, 861 590, 868 586, 875 584, 883 582, 890 581, 897 577, 904 570, 912 562, 919 557, 926 546, 933 538, 941 529, 948 527, 955 525, 962 526, 970 526, 977 538, 984 547, 991 557, 999 562, 1006 563, 1013 565, 1020 569, 1028 573, 1035 573, 1042 573, 1049 575, 1057 570, 1064 561, 1071 560, 1078 560, 1086 559, 1093 558, 1100 558, 1107 563, 1115 574, 1122 586, 1129 592, 1136 596, 1144 601, 1151 604, 1158 606, 1165 606, 1173 606, 1180 607, 1187 605, 1194 602, 1202 599, 1209 597, 1216 595, 1223 594, 1231 593, 1238 593, 1245 594, 1252 590, 1260 584, 1267 558, 1274 534, 1281 524, 1289 510, 1296 498" stroke="#141411" stroke-width="3" fill="none" />
<polyline points="64 608, 71 563, 78 539, 85 522, 92 508, 100 496, 107 486, 114 476, 121 492, 129 497, 136 491, 143 494, 150 499, 158 501, 165 502, 172 512, 179 523, 187 537, 194 540, 201 541, 208 541, 216 534, 223 532, 230 523, 237 519, 245 525, 252 528, 259 534, 266 542, 274 546, 281 556, 288 564, 295 565, 303 549, 310 540, 317 531, 324 513, 332 494, 339 476, 346 463, 353 458, 361 458, 368 460, 375 467, 382 477, 390 490, 397 501, 404 510, 411 515, 419 522, 426 523, 433 526, 440 529, 448 530, 455 520, 462 516, 469 509, 477 507, 484 504, 491 508, 498 513, 506 514, 513 513, 520 521, 527 528, 535 535, 542 541, 549 546, 556 548, 564 559, 571 569, 578 574, 585 583, 593 589, 600 592, 607 594, 614 599, 622 603, 629 605, 636 605, 643 606, 651 605, 658 603, 665 603, 672 605, 680 605, 687 605, 694 604, 701 599, 709 587, 716 579, 723 571, 730 565, 738 558, 745 550, 752 542, 759 543, 767 545, 774 544, 781 548, 788 553, 796 561, 803 568, 810 576, 817 582, 825 588, 832 592, 839 591, 846 591, 854 592, 861 590, 868 586, 875 584, 883 582, 890 581, 897 577, 904 570, 912 562, 919 557, 926 546, 933 538, 941 529, 948 527, 955 525, 962 526, 970 526, 977 538, 984 547, 991 557, 999 562, 1006 563, 1013 565, 1020 569, 1028 573, 1035 573, 1042 573, 1049 575, 1057 570, 1064 561, 1071 560, 1078 560, 1086 559, 1093 558, 1100 558, 1107 563, 1115 574, 1122 586, 1129 592, 1136 596, 1144 601, 1151 604, 1158 606, 1165 606, 1173 606, 1180 607, 1187 605, 1194 602, 1202 599, 1209 597, 1216 595, 1223 594, 1231 593, 1238 593, 1245 594, 1252 590, 1260 584, 1267 558, 1274 534, 1281 524, 1289 510, 1296 498" stroke="#FF9800" stroke-width="1" fill="none" />
<circle cx="352.35" cy="457.27" r="1.5" fill="#FF9800" />
<text x="352.35" y="449.27" fill="#FF9800" font-family="Ubuntu Mono" font-size="12" text-anchor="middle" alignment-baseline="central" >8953</text>
<circle cx="1296.27" cy="497.57" r="1.5" fill="#FF9800" />
<text x="1304.27" y="497.57" fill="#FF9800" font-family="Ubuntu Mono" font-size="12" text-anchor="start" alignment-baseline="central" >7821</text>
<polyline points="1296.27 497.57, 1296.27 776" stroke="#FF9800" stroke-width="0.25" fill="none" />
<circle cx="64.0" cy="607.65" r="1.5" fill="#FF9800" />
<text x="56.0" y="607.65" fill="#FF9800" font-family="Ubuntu Mono" font-size="12" text-anchor="end" alignment-baseline="central" >4729</text>
<circle cx="88" cy="148" r="1.5" fill="#FF5722" />
<text x="96" y="148" fill="#FF5722" font-family="Ubuntu Mono" font-size="12" text-anchor="start" alignment-baseline="central" >Release 0.8: </text>
<polyline points="64 493, 71 462, 78 437, 85 432, 92 423, 100 416, 107 408, 114 395, 121 401, 129 430, 136 445, 143 452" stroke="#141411" stroke-width="3" fill="none" />
<polyline points="64 493, 71 462, 78 437, 85 432, 92 423, 100 416, 107 408, 114 395, 121 401, 129 430, 136 445, 143 452" stroke="#FF5722" stroke-width="1" fill="none" />
<circle cx="114.46" cy="394.97" r="1.5" fill="#FF5722" />
<text x="114.46" y="386.97" fill="#FF5722" font-family="Ubuntu Mono" font-size="12" text-anchor="middle" alignment-baseline="central" >10703</text>
<circle cx="143.73" cy="451.65" r="1.5" fill="#FF5722" />
<text x="151.73" y="451.65" fill="#FF5722" font-family="Ubuntu Mono" font-size="12" text-anchor="start" alignment-baseline="central" >9111</text>
<polyline points="143.73 451.65, 143.73 776" stroke="#FF5722" stroke-width="0.25" fill="none" />
<circle cx="64.0" cy="492.66" r="1.5" fill="#FF5722" />
<text x="56.0" y="492.66" fill="#FF5722" font-family="Ubuntu Mono" font-size="12" text-anchor="end" alignment-baseline="central" >7959</text>
</svg>
